G04 #@! TF.GenerationSoftware,KiCad,Pcbnew,(6.0.5)*
G04 #@! TF.CreationDate,2023-01-06T18:50:22+09:00*
G04 #@! TF.ProjectId,signalprocessing,7369676e-616c-4707-926f-63657373696e,rev?*
G04 #@! TF.SameCoordinates,Original*
G04 #@! TF.FileFunction,Soldermask,Top*
G04 #@! TF.FilePolarity,Negative*
%FSLAX46Y46*%
G04 Gerber Fmt 4.6, Leading zero omitted, Abs format (unit mm)*
G04 Created by KiCad (PCBNEW (6.0.5)) date 2023-01-06 18:50:22*
%MOMM*%
%LPD*%
G01*
G04 APERTURE LIST*
%ADD10C,2.000000*%
%ADD11C,1.500000*%
%ADD12C,1.600000*%
%ADD13R,1.600000X1.600000*%
%ADD14O,1.600000X1.600000*%
%ADD15C,2.450000*%
%ADD16C,2.300000*%
%ADD17C,2.020000*%
%ADD18C,2.500000*%
%ADD19R,1.500000X1.500000*%
%ADD20R,1.160000X1.160000*%
%ADD21C,1.160000*%
G04 APERTURE END LIST*
D10*
G04 #@! TO.C,TP4*
X101600000Y-88265000D03*
G04 #@! TD*
D11*
G04 #@! TO.C,REF\u002A\u002A30*
X105410000Y-156845000D03*
G04 #@! TD*
D12*
G04 #@! TO.C,C10*
X99020000Y-127000000D03*
X94020000Y-127000000D03*
G04 #@! TD*
G04 #@! TO.C,C8*
X90210000Y-103505000D03*
X95210000Y-103505000D03*
G04 #@! TD*
D11*
G04 #@! TO.C,REF\u002A\u002A82*
X110490000Y-169545000D03*
G04 #@! TD*
G04 #@! TO.C,REF\u002A\u002A86*
X120650000Y-169545000D03*
G04 #@! TD*
G04 #@! TO.C,REF\u002A\u002A30*
X102870000Y-156845000D03*
G04 #@! TD*
G04 #@! TO.C,REF\u002A\u002A39*
X128270000Y-156845000D03*
G04 #@! TD*
G04 #@! TO.C,REF\u002A\u002A24*
X115570000Y-154305000D03*
G04 #@! TD*
G04 #@! TO.C,REF\u002A\u002A69*
X128270000Y-164465000D03*
G04 #@! TD*
G04 #@! TO.C,REF\u002A\u002A49*
X128270000Y-159385000D03*
G04 #@! TD*
G04 #@! TO.C,REF\u002A\u002A62*
X110490000Y-164465000D03*
G04 #@! TD*
D10*
G04 #@! TO.C,TP1*
X113665000Y-88265000D03*
G04 #@! TD*
D13*
G04 #@! TO.C,U1*
X80395000Y-88625000D03*
D14*
X80395000Y-91165000D03*
X80395000Y-93705000D03*
X80395000Y-96245000D03*
X80395000Y-98785000D03*
X80395000Y-101325000D03*
X80395000Y-103865000D03*
X80395000Y-106405000D03*
X80395000Y-111485000D03*
X80395000Y-114025000D03*
X80395000Y-116565000D03*
X80395000Y-119105000D03*
X80395000Y-121645000D03*
X80395000Y-124185000D03*
X128655000Y-124185000D03*
X128655000Y-121645000D03*
X128655000Y-119105000D03*
X128655000Y-116565000D03*
X128655000Y-114025000D03*
X128655000Y-111485000D03*
X128655000Y-108945000D03*
X128655000Y-106405000D03*
X128655000Y-102345000D03*
X128655000Y-99805000D03*
X128655000Y-97265000D03*
X128655000Y-94725000D03*
X128655000Y-92185000D03*
X128655000Y-89645000D03*
X128655000Y-87105000D03*
X128655000Y-84565000D03*
X128655000Y-82025000D03*
X128655000Y-79485000D03*
G04 #@! TD*
D11*
G04 #@! TO.C,REF\u002A\u002A26*
X120650000Y-154305000D03*
G04 #@! TD*
D12*
G04 #@! TO.C,R12*
X88265000Y-109220000D03*
D14*
X95885000Y-109220000D03*
G04 #@! TD*
D11*
G04 #@! TO.C,REF\u002A\u002A8*
X125730000Y-149225000D03*
G04 #@! TD*
D12*
G04 #@! TO.C,R10*
X83820000Y-111125000D03*
D14*
X83820000Y-103505000D03*
G04 #@! TD*
D12*
G04 #@! TO.C,R1*
X106680000Y-114300000D03*
D14*
X106680000Y-106680000D03*
G04 #@! TD*
D13*
G04 #@! TO.C,C11*
X87694888Y-128270000D03*
D12*
X90194888Y-128270000D03*
G04 #@! TD*
D15*
G04 #@! TO.C,J1*
X119974000Y-87067500D03*
X119424000Y-81567500D03*
X124924000Y-81567500D03*
D16*
X124374000Y-87067500D03*
G04 #@! TD*
D11*
G04 #@! TO.C,REF\u002A\u002A57*
X123190000Y-161925000D03*
G04 #@! TD*
G04 #@! TO.C,REF\u002A\u002A104*
X115570000Y-174625000D03*
G04 #@! TD*
G04 #@! TO.C,REF\u002A\u002A105*
X118110000Y-174625000D03*
G04 #@! TD*
D12*
G04 #@! TO.C,R3*
X118110000Y-93980000D03*
D14*
X118110000Y-101600000D03*
G04 #@! TD*
D11*
G04 #@! TO.C,REF\u002A\u002A85*
X118110000Y-169545000D03*
G04 #@! TD*
G04 #@! TO.C,REF\u002A\u002A56*
X120650000Y-161925000D03*
G04 #@! TD*
G04 #@! TO.C,REF\u002A\u002A61*
X107950000Y-164465000D03*
G04 #@! TD*
G04 #@! TO.C,REF\u002A\u002A46*
X88265000Y-159385000D03*
G04 #@! TD*
G04 #@! TO.C,REF\u002A\u002A1*
X107950000Y-149225000D03*
G04 #@! TD*
G04 #@! TO.C,REF\u002A\u002A97*
X90805000Y-172085000D03*
G04 #@! TD*
G04 #@! TO.C,REF\u002A\u002A96*
X88265000Y-172085000D03*
G04 #@! TD*
D12*
G04 #@! TO.C,C1*
X107275000Y-129540000D03*
X102275000Y-129540000D03*
G04 #@! TD*
D11*
G04 #@! TO.C,REF\u002A\u002A5*
X85725000Y-149225000D03*
G04 #@! TD*
G04 #@! TO.C,REF\u002A\u002A34*
X115570000Y-156845000D03*
G04 #@! TD*
G04 #@! TO.C,REF\u002A\u002A84*
X115570000Y-169545000D03*
G04 #@! TD*
G04 #@! TO.C,REF\u002A\u002A51*
X107950000Y-161925000D03*
G04 #@! TD*
D17*
G04 #@! TO.C,JP2*
X100585000Y-97155000D03*
X100585000Y-94615000D03*
G04 #@! TD*
D11*
G04 #@! TO.C,REF\u002A\u002A37*
X90805000Y-156845000D03*
G04 #@! TD*
G04 #@! TO.C,REF\u002A\u002A45*
X118110000Y-159385000D03*
G04 #@! TD*
G04 #@! TO.C,REF\u002A\u002A74*
X83185000Y-167005000D03*
G04 #@! TD*
G04 #@! TO.C,REF\u002A\u002A102*
X110490000Y-174625000D03*
G04 #@! TD*
G04 #@! TO.C,REF\u002A\u002A73*
X80645000Y-167005000D03*
G04 #@! TD*
G04 #@! TO.C,REF\u002A\u002A17*
X123190000Y-151765000D03*
G04 #@! TD*
G04 #@! TO.C,REF\u002A\u002A93*
X113030000Y-172085000D03*
G04 #@! TD*
G04 #@! TO.C,REF\u002A\u002A50*
X105410000Y-161925000D03*
G04 #@! TD*
G04 #@! TO.C,REF\u002A\u002A77*
X123190000Y-167005000D03*
G04 #@! TD*
G04 #@! TO.C,REF\u002A\u002A95*
X85725000Y-172085000D03*
G04 #@! TD*
G04 #@! TO.C,REF\u002A\u002A107*
X123190000Y-174625000D03*
G04 #@! TD*
G04 #@! TO.C,REF\u002A\u002A6*
X88265000Y-149225000D03*
G04 #@! TD*
D12*
G04 #@! TO.C,R9*
X115570000Y-137795000D03*
D14*
X107950000Y-137795000D03*
G04 #@! TD*
D11*
G04 #@! TO.C,REF\u002A\u002A15*
X85725000Y-151765000D03*
G04 #@! TD*
G04 #@! TO.C,REF\u002A\u002A3*
X80645000Y-149225000D03*
G04 #@! TD*
G04 #@! TO.C,REF\u002A\u002A106*
X88265000Y-174625000D03*
G04 #@! TD*
G04 #@! TO.C,REF\u002A\u002A92*
X110490000Y-172085000D03*
G04 #@! TD*
G04 #@! TO.C,REF\u002A\u002A33*
X113030000Y-156845000D03*
G04 #@! TD*
G04 #@! TO.C,REF\u002A\u002A55*
X118110000Y-161925000D03*
G04 #@! TD*
G04 #@! TO.C,REF\u002A\u002A48*
X125730000Y-159385000D03*
G04 #@! TD*
G04 #@! TO.C,REF\u002A\u002A38*
X125730000Y-156845000D03*
G04 #@! TD*
G04 #@! TO.C,REF\u002A\u002A74*
X115570000Y-167005000D03*
G04 #@! TD*
D10*
G04 #@! TO.C,TP3*
X95250000Y-88265000D03*
G04 #@! TD*
D11*
G04 #@! TO.C,REF\u002A\u002A57*
X90805000Y-161925000D03*
G04 #@! TD*
G04 #@! TO.C,REF\u002A\u002A27*
X123190000Y-154305000D03*
G04 #@! TD*
G04 #@! TO.C,REF\u002A\u002A19*
X128270000Y-151765000D03*
G04 #@! TD*
G04 #@! TO.C,REF\u002A\u002A28*
X125730000Y-154305000D03*
G04 #@! TD*
G04 #@! TO.C,REF\u002A\u002A42*
X110490000Y-159385000D03*
G04 #@! TD*
G04 #@! TO.C,REF\u002A\u002A91*
X107950000Y-172085000D03*
G04 #@! TD*
G04 #@! TO.C,REF\u002A\u002A55*
X85725000Y-161925000D03*
G04 #@! TD*
G04 #@! TO.C,REF\u002A\u002A35*
X118110000Y-156845000D03*
G04 #@! TD*
G04 #@! TO.C,REF\u002A\u002A73*
X113030000Y-167005000D03*
G04 #@! TD*
D12*
G04 #@! TO.C,C7*
X109260000Y-93345000D03*
X114260000Y-93345000D03*
G04 #@! TD*
D11*
G04 #@! TO.C,REF\u002A\u002A97*
X123190000Y-172085000D03*
G04 #@! TD*
D15*
G04 #@! TO.C,J2*
X85176000Y-87067500D03*
X84626000Y-81567500D03*
X90126000Y-81567500D03*
D16*
X89576000Y-87067500D03*
G04 #@! TD*
D12*
G04 #@! TO.C,R6*
X118745000Y-142240000D03*
D14*
X126365000Y-142240000D03*
G04 #@! TD*
D11*
G04 #@! TO.C,REF\u002A\u002A79*
X128270000Y-167005000D03*
G04 #@! TD*
G04 #@! TO.C,REF\u002A\u002A20*
X105410000Y-154305000D03*
G04 #@! TD*
D17*
G04 #@! TO.C,JP3*
X95195000Y-97152500D03*
X95195000Y-94612500D03*
G04 #@! TD*
D11*
G04 #@! TO.C,REF\u002A\u002A70*
X105410000Y-167005000D03*
G04 #@! TD*
G04 #@! TO.C,REF\u002A\u002A34*
X83185000Y-156845000D03*
G04 #@! TD*
G04 #@! TO.C,REF\u002A\u002A50*
X93345000Y-161925000D03*
G04 #@! TD*
G04 #@! TO.C,REF\u002A\u002A76*
X120650000Y-167005000D03*
G04 #@! TD*
G04 #@! TO.C,REF\u002A\u002A6*
X120650000Y-149225000D03*
G04 #@! TD*
G04 #@! TO.C,REF\u002A\u002A25*
X118110000Y-154305000D03*
G04 #@! TD*
G04 #@! TO.C,REF\u002A\u002A40*
X102870000Y-159385000D03*
G04 #@! TD*
D17*
G04 #@! TO.C,JP1*
X88900000Y-142240000D03*
X88900000Y-139700000D03*
G04 #@! TD*
D11*
G04 #@! TO.C,REF\u002A\u002A36*
X120650000Y-156845000D03*
G04 #@! TD*
G04 #@! TO.C,REF\u002A\u002A44*
X83185000Y-159385000D03*
G04 #@! TD*
G04 #@! TO.C,REF\u002A\u002A24*
X83185000Y-154305000D03*
G04 #@! TD*
G04 #@! TO.C,REF\u002A\u002A88*
X125730000Y-169545000D03*
G04 #@! TD*
G04 #@! TO.C,REF\u002A\u002A31*
X107950000Y-156845000D03*
G04 #@! TD*
G04 #@! TO.C,REF\u002A\u002A87*
X123190000Y-169545000D03*
G04 #@! TD*
D18*
G04 #@! TO.C,REF\u002A\u002A*
X127254000Y-173482000D03*
G04 #@! TD*
D11*
G04 #@! TO.C,REF\u002A\u002A4*
X83185000Y-149225000D03*
G04 #@! TD*
D12*
G04 #@! TO.C,R7*
X126365000Y-137795000D03*
D14*
X118745000Y-137795000D03*
G04 #@! TD*
D11*
G04 #@! TO.C,REF\u002A\u002A18*
X125730000Y-151765000D03*
G04 #@! TD*
G04 #@! TO.C,REF\u002A\u002A11*
X107950000Y-151765000D03*
G04 #@! TD*
G04 #@! TO.C,REF\u002A\u002A7*
X123190000Y-149225000D03*
G04 #@! TD*
G04 #@! TO.C,REF\u002A\u002A26*
X88265000Y-154305000D03*
G04 #@! TD*
G04 #@! TO.C,REF\u002A\u002A16*
X88265000Y-151765000D03*
G04 #@! TD*
G04 #@! TO.C,REF\u002A\u002A50*
X102870000Y-161925000D03*
G04 #@! TD*
G04 #@! TO.C,REF\u002A\u002A*
X102870000Y-149225000D03*
G04 #@! TD*
G04 #@! TO.C,REF\u002A\u002A40*
X93345000Y-159385000D03*
G04 #@! TD*
D12*
G04 #@! TO.C,R8*
X107950000Y-142240000D03*
D14*
X115570000Y-142240000D03*
G04 #@! TD*
D11*
G04 #@! TO.C,REF\u002A\u002A40*
X105410000Y-159385000D03*
G04 #@! TD*
D12*
G04 #@! TO.C,R13*
X88265000Y-113030000D03*
D14*
X95885000Y-113030000D03*
G04 #@! TD*
D11*
G04 #@! TO.C,REF\u002A\u002A46*
X120650000Y-159385000D03*
G04 #@! TD*
D12*
G04 #@! TO.C,R11*
X106045000Y-103505000D03*
D14*
X98425000Y-103505000D03*
G04 #@! TD*
D11*
G04 #@! TO.C,REF\u002A\u002A94*
X115570000Y-172085000D03*
G04 #@! TD*
G04 #@! TO.C,REF\u002A\u002A95*
X118110000Y-172085000D03*
G04 #@! TD*
G04 #@! TO.C,REF\u002A\u002A15*
X118110000Y-151765000D03*
G04 #@! TD*
G04 #@! TO.C,REF\u002A\u002A47*
X90805000Y-159385000D03*
G04 #@! TD*
G04 #@! TO.C,REF\u002A\u002A43*
X80645000Y-159385000D03*
G04 #@! TD*
G04 #@! TO.C,REF\u002A\u002A14*
X83185000Y-151765000D03*
G04 #@! TD*
G04 #@! TO.C,REF\u002A\u002A53*
X113030000Y-161925000D03*
G04 #@! TD*
G04 #@! TO.C,REF\u002A\u002A21*
X107950000Y-154305000D03*
G04 #@! TD*
D17*
G04 #@! TO.C,JP11*
X85993500Y-139700000D03*
X85993500Y-142240000D03*
G04 #@! TD*
D11*
G04 #@! TO.C,REF\u002A\u002A77*
X90805000Y-167005000D03*
G04 #@! TD*
G04 #@! TO.C,REF\u002A\u002A64*
X115570000Y-164465000D03*
G04 #@! TD*
G04 #@! TO.C,REF\u002A\u002A58*
X125730000Y-161925000D03*
G04 #@! TD*
G04 #@! TO.C,REF\u002A\u002A37*
X123190000Y-156845000D03*
G04 #@! TD*
G04 #@! TO.C,REF\u002A\u002A80*
X105410000Y-169545000D03*
G04 #@! TD*
G04 #@! TO.C,REF\u002A\u002A29*
X128270000Y-154305000D03*
G04 #@! TD*
G04 #@! TO.C,REF\u002A\u002A44*
X115570000Y-159385000D03*
G04 #@! TD*
G04 #@! TO.C,REF\u002A\u002A90*
X105410000Y-172085000D03*
G04 #@! TD*
G04 #@! TO.C,REF\u002A\u002A65*
X118110000Y-164465000D03*
G04 #@! TD*
G04 #@! TO.C,REF\u002A\u002A10*
X102870000Y-151765000D03*
G04 #@! TD*
D17*
G04 #@! TO.C,JP12*
X103374000Y-97155000D03*
X103374000Y-94615000D03*
G04 #@! TD*
D11*
G04 #@! TO.C,REF\u002A\u002A13*
X113030000Y-151765000D03*
G04 #@! TD*
G04 #@! TO.C,REF\u002A\u002A75*
X118110000Y-167005000D03*
G04 #@! TD*
G04 #@! TO.C,REF\u002A\u002A67*
X123190000Y-164465000D03*
G04 #@! TD*
G04 #@! TO.C,REF\u002A\u002A84*
X83185000Y-169545000D03*
G04 #@! TD*
G04 #@! TO.C,REF\u002A\u002A59*
X128270000Y-161925000D03*
G04 #@! TD*
G04 #@! TO.C,REF\u002A\u002A100*
X105410000Y-174625000D03*
G04 #@! TD*
G04 #@! TO.C,REF\u002A\u002A14*
X115570000Y-151765000D03*
G04 #@! TD*
G04 #@! TO.C,REF\u002A\u002A107*
X90805000Y-174625000D03*
G04 #@! TD*
G04 #@! TO.C,REF\u002A\u002A4*
X115570000Y-149225000D03*
G04 #@! TD*
G04 #@! TO.C,REF\u002A\u002A54*
X115570000Y-161925000D03*
G04 #@! TD*
G04 #@! TO.C,REF\u002A\u002A36*
X88265000Y-156845000D03*
G04 #@! TD*
G04 #@! TO.C,REF\u002A\u002A63*
X80645000Y-164465000D03*
G04 #@! TD*
G04 #@! TO.C,REF\u002A\u002A52*
X110490000Y-161925000D03*
G04 #@! TD*
G04 #@! TO.C,REF\u002A\u002A45*
X85725000Y-159385000D03*
G04 #@! TD*
G04 #@! TO.C,REF\u002A\u002A65*
X85725000Y-164465000D03*
G04 #@! TD*
G04 #@! TO.C,REF\u002A\u002A47*
X123190000Y-159385000D03*
G04 #@! TD*
D12*
G04 #@! TO.C,C6*
X109260000Y-97155000D03*
X114260000Y-97155000D03*
G04 #@! TD*
D10*
G04 #@! TO.C,TP2*
X107315000Y-88265000D03*
G04 #@! TD*
D12*
G04 #@! TO.C,C3*
X122555000Y-104180000D03*
X122555000Y-109180000D03*
G04 #@! TD*
D11*
G04 #@! TO.C,REF\u002A\u002A53*
X80645000Y-161925000D03*
G04 #@! TD*
G04 #@! TO.C,REF\u002A\u002A23*
X80645000Y-154305000D03*
G04 #@! TD*
D19*
G04 #@! TO.C,RV1*
X95885000Y-173355000D03*
D11*
X98385000Y-173355000D03*
X100885000Y-173355000D03*
X95885000Y-170855000D03*
X98385000Y-170855000D03*
X100885000Y-170855000D03*
G04 #@! TD*
G04 #@! TO.C,REF\u002A\u002A16*
X120650000Y-151765000D03*
G04 #@! TD*
G04 #@! TO.C,REF\u002A\u002A63*
X113030000Y-164465000D03*
G04 #@! TD*
G04 #@! TO.C,REF\u002A\u002A87*
X90805000Y-169545000D03*
G04 #@! TD*
G04 #@! TO.C,REF\u002A\u002A27*
X90805000Y-154305000D03*
G04 #@! TD*
G04 #@! TO.C,REF\u002A\u002A20*
X102870000Y-154305000D03*
G04 #@! TD*
G04 #@! TO.C,REF\u002A\u002A60*
X105410000Y-164465000D03*
G04 #@! TD*
G04 #@! TO.C,REF\u002A\u002A12*
X110490000Y-151765000D03*
G04 #@! TD*
G04 #@! TO.C,REF\u002A\u002A66*
X88265000Y-164465000D03*
G04 #@! TD*
G04 #@! TO.C,REF\u002A\u002A10*
X105410000Y-151765000D03*
G04 #@! TD*
G04 #@! TO.C,REF\u002A\u002A81*
X107950000Y-169545000D03*
G04 #@! TD*
G04 #@! TO.C,REF\u002A\u002A5*
X118110000Y-149225000D03*
G04 #@! TD*
D12*
G04 #@! TO.C,C9*
X100330000Y-113625000D03*
X100330000Y-108625000D03*
G04 #@! TD*
D11*
G04 #@! TO.C,REF\u002A\u002A66*
X120650000Y-164465000D03*
G04 #@! TD*
G04 #@! TO.C,REF\u002A\u002A13*
X80645000Y-151765000D03*
G04 #@! TD*
G04 #@! TO.C,REF\u002A\u002A17*
X90805000Y-151765000D03*
G04 #@! TD*
G04 #@! TO.C,REF\u002A\u002A20*
X93345000Y-154305000D03*
G04 #@! TD*
G04 #@! TO.C,REF\u002A\u002A23*
X113030000Y-154305000D03*
G04 #@! TD*
D20*
G04 #@! TO.C,IC2*
X99695000Y-123825000D03*
D21*
X99695000Y-121285000D03*
X99695000Y-118745000D03*
X99695000Y-116205000D03*
X92075000Y-116205000D03*
X92075000Y-118745000D03*
X92075000Y-121285000D03*
X92075000Y-123825000D03*
G04 #@! TD*
D11*
G04 #@! TO.C,REF\u002A\u002A83*
X80645000Y-169545000D03*
G04 #@! TD*
D12*
G04 #@! TO.C,R2*
X113665000Y-103505000D03*
D14*
X113665000Y-111125000D03*
G04 #@! TD*
D12*
G04 #@! TO.C,C4*
X107315000Y-118785000D03*
X107315000Y-123785000D03*
G04 #@! TD*
D11*
G04 #@! TO.C,REF\u002A\u002A85*
X85725000Y-169545000D03*
G04 #@! TD*
G04 #@! TO.C,REF\u002A\u002A68*
X125730000Y-164465000D03*
G04 #@! TD*
G04 #@! TO.C,REF\u002A\u002A67*
X90805000Y-164465000D03*
G04 #@! TD*
G04 #@! TO.C,REF\u002A\u002A30*
X93345000Y-156845000D03*
G04 #@! TD*
G04 #@! TO.C,REF\u002A\u002A22*
X110490000Y-154305000D03*
G04 #@! TD*
G04 #@! TO.C,REF\u002A\u002A3*
X113030000Y-149225000D03*
G04 #@! TD*
G04 #@! TO.C,REF\u002A\u002A25*
X85725000Y-154305000D03*
G04 #@! TD*
G04 #@! TO.C,REF\u002A\u002A54*
X83185000Y-161925000D03*
G04 #@! TD*
D12*
G04 #@! TO.C,C5*
X121325000Y-133350000D03*
X126325000Y-133350000D03*
G04 #@! TD*
D18*
G04 #@! TO.C,REF\u002A\u002A*
X81788000Y-173482000D03*
G04 #@! TD*
D11*
G04 #@! TO.C,REF\u002A\u002A89*
X128270000Y-169545000D03*
G04 #@! TD*
G04 #@! TO.C,REF\u002A\u002A2*
X110490000Y-149225000D03*
G04 #@! TD*
D17*
G04 #@! TO.C,JP14*
X84455000Y-94615000D03*
X84455000Y-97155000D03*
G04 #@! TD*
D11*
G04 #@! TO.C,REF\u002A\u002A76*
X88265000Y-167005000D03*
G04 #@! TD*
G04 #@! TO.C,REF\u002A\u002A10*
X93345000Y-151765000D03*
G04 #@! TD*
G04 #@! TO.C,REF\u002A\u002A35*
X85725000Y-156845000D03*
G04 #@! TD*
G04 #@! TO.C,REF\u002A\u002A75*
X85725000Y-167005000D03*
G04 #@! TD*
D12*
G04 #@! TO.C,R5*
X122555000Y-114935000D03*
D14*
X122555000Y-122555000D03*
G04 #@! TD*
D12*
G04 #@! TO.C,C2*
X118110000Y-104180000D03*
X118110000Y-109180000D03*
G04 #@! TD*
D11*
G04 #@! TO.C,REF\u002A\u002A32*
X110490000Y-156845000D03*
G04 #@! TD*
G04 #@! TO.C,REF\u002A\u002A64*
X83185000Y-164465000D03*
G04 #@! TD*
G04 #@! TO.C,REF\u002A\u002A43*
X113030000Y-159385000D03*
G04 #@! TD*
G04 #@! TO.C,REF\u002A\u002A105*
X85725000Y-174625000D03*
G04 #@! TD*
G04 #@! TO.C,REF\u002A\u002A9*
X128270000Y-149225000D03*
G04 #@! TD*
G04 #@! TO.C,REF\u002A\u002A7*
X90805000Y-149225000D03*
G04 #@! TD*
D20*
G04 #@! TO.C,IC1*
X118110000Y-118585000D03*
D21*
X115570000Y-118585000D03*
X113030000Y-118585000D03*
X110490000Y-118585000D03*
X110490000Y-126525000D03*
X113030000Y-126525000D03*
X115570000Y-126525000D03*
X118110000Y-126525000D03*
G04 #@! TD*
D11*
G04 #@! TO.C,REF\u002A\u002A106*
X120650000Y-174625000D03*
G04 #@! TD*
G04 #@! TO.C,REF\u002A\u002A103*
X113030000Y-174625000D03*
G04 #@! TD*
D17*
G04 #@! TO.C,JP4*
X87067000Y-97155000D03*
X87067000Y-94615000D03*
G04 #@! TD*
G04 #@! TO.C,JP13*
X92511000Y-94620000D03*
X92511000Y-97160000D03*
G04 #@! TD*
D11*
G04 #@! TO.C,REF\u002A\u002A86*
X88265000Y-169545000D03*
G04 #@! TD*
G04 #@! TO.C,REF\u002A\u002A*
X93345000Y-149225000D03*
G04 #@! TD*
G04 #@! TO.C,REF\u002A\u002A72*
X110490000Y-167005000D03*
G04 #@! TD*
G04 #@! TO.C,REF\u002A\u002A33*
X80645000Y-156845000D03*
G04 #@! TD*
G04 #@! TO.C,REF\u002A\u002A56*
X88265000Y-161925000D03*
G04 #@! TD*
G04 #@! TO.C,REF\u002A\u002A*
X105410000Y-149225000D03*
G04 #@! TD*
G04 #@! TO.C,REF\u002A\u002A101*
X107950000Y-174625000D03*
G04 #@! TD*
G04 #@! TO.C,REF\u002A\u002A41*
X107950000Y-159385000D03*
G04 #@! TD*
G04 #@! TO.C,REF\u002A\u002A96*
X120650000Y-172085000D03*
G04 #@! TD*
G04 #@! TO.C,REF\u002A\u002A71*
X107950000Y-167005000D03*
G04 #@! TD*
G04 #@! TO.C,REF\u002A\u002A78*
X125730000Y-167005000D03*
G04 #@! TD*
D19*
G04 #@! TO.C,RV1*
X95885000Y-140970000D03*
D11*
X98385000Y-140970000D03*
X100885000Y-140970000D03*
X95885000Y-138470000D03*
X98385000Y-138470000D03*
X100885000Y-138470000D03*
G04 #@! TD*
G04 #@! TO.C,REF\u002A\u002A83*
X113030000Y-169545000D03*
G04 #@! TD*
D12*
G04 #@! TO.C,R4*
X122555000Y-93980000D03*
D14*
X122555000Y-101600000D03*
G04 #@! TD*
M02*
