G04 #@! TF.GenerationSoftware,KiCad,Pcbnew,(6.0.5)*
G04 #@! TF.CreationDate,2023-01-24T14:28:26+09:00*
G04 #@! TF.ProjectId,signalprocessing,7369676e-616c-4707-926f-63657373696e,rev?*
G04 #@! TF.SameCoordinates,Original*
G04 #@! TF.FileFunction,Profile,NP*
%FSLAX46Y46*%
G04 Gerber Fmt 4.6, Leading zero omitted, Abs format (unit mm)*
G04 Created by KiCad (PCBNEW (6.0.5)) date 2023-01-24 14:28:26*
%MOMM*%
%LPD*%
G01*
G04 APERTURE LIST*
G04 #@! TA.AperFunction,Profile*
%ADD10C,0.100000*%
G04 #@! TD*
G04 APERTURE END LIST*
D10*
X102108000Y-147000000D02*
X129025059Y-147000000D01*
X77393674Y-177163377D02*
X77399860Y-145967195D01*
X92710000Y-83185000D02*
X92710000Y-79940000D01*
X129025059Y-147000082D02*
G75*
G03*
X129025059Y-145970118I41J514982D01*
G01*
X77393674Y-177163377D02*
X131395438Y-177165000D01*
X129025059Y-145970118D02*
X102108000Y-145969902D01*
X90170000Y-77400000D02*
X92710000Y-79940000D01*
X131400479Y-145970118D02*
X131395438Y-177165000D01*
X116840000Y-83185000D02*
X116840000Y-79940000D01*
X94742000Y-147000082D02*
G75*
G03*
X94742000Y-145970118I0J514982D01*
G01*
X92710000Y-83185000D02*
G75*
G03*
X93980000Y-84455000I1270000J0D01*
G01*
X99568000Y-146558000D02*
G75*
G03*
X99568000Y-146558000I-508000J0D01*
G01*
X131400000Y-77400000D02*
X131400479Y-145970118D01*
X77400000Y-77400000D02*
X90170000Y-77400000D01*
X77400000Y-77400000D02*
X77399860Y-145967195D01*
X79756000Y-147000082D02*
X94742000Y-147000082D01*
X115570000Y-84455000D02*
G75*
G03*
X116840000Y-83185000I0J1270000D01*
G01*
X131400000Y-77400000D02*
X119380000Y-77400000D01*
X94742000Y-145970118D02*
X79756000Y-145970200D01*
X102108000Y-145970000D02*
G75*
G03*
X102108000Y-147000000I0J-515000D01*
G01*
X115570000Y-84455000D02*
X93980000Y-84455000D01*
X119380000Y-77400000D02*
X116840000Y-79940000D01*
X79756000Y-145970118D02*
G75*
G03*
X79756000Y-147000082I0J-514982D01*
G01*
M02*
