G04 #@! TF.GenerationSoftware,KiCad,Pcbnew,(6.0.5)*
G04 #@! TF.CreationDate,2023-01-06T17:56:39+09:00*
G04 #@! TF.ProjectId,signalprocessing,7369676e-616c-4707-926f-63657373696e,rev?*
G04 #@! TF.SameCoordinates,Original*
G04 #@! TF.FileFunction,Legend,Top*
G04 #@! TF.FilePolarity,Positive*
%FSLAX46Y46*%
G04 Gerber Fmt 4.6, Leading zero omitted, Abs format (unit mm)*
G04 Created by KiCad (PCBNEW (6.0.5)) date 2023-01-06 17:56:39*
%MOMM*%
%LPD*%
G01*
G04 APERTURE LIST*
%ADD10C,0.150000*%
%ADD11C,0.254000*%
%ADD12C,0.120000*%
%ADD13C,0.100000*%
%ADD14C,0.200000*%
G04 APERTURE END LIST*
D10*
X83994666Y-98766380D02*
X84613714Y-98766380D01*
X84280380Y-99147333D01*
X84423238Y-99147333D01*
X84518476Y-99194952D01*
X84566095Y-99242571D01*
X84613714Y-99337809D01*
X84613714Y-99575904D01*
X84566095Y-99671142D01*
X84518476Y-99718761D01*
X84423238Y-99766380D01*
X84137523Y-99766380D01*
X84042285Y-99718761D01*
X83994666Y-99671142D01*
X94916666Y-98766380D02*
X95535714Y-98766380D01*
X95202380Y-99147333D01*
X95345238Y-99147333D01*
X95440476Y-99194952D01*
X95488095Y-99242571D01*
X95535714Y-99337809D01*
X95535714Y-99575904D01*
X95488095Y-99671142D01*
X95440476Y-99718761D01*
X95345238Y-99766380D01*
X95059523Y-99766380D01*
X94964285Y-99718761D01*
X94916666Y-99671142D01*
X100869714Y-99766380D02*
X100298285Y-99766380D01*
X100584000Y-99766380D02*
X100584000Y-98766380D01*
X100488761Y-98909238D01*
X100393523Y-99004476D01*
X100298285Y-99052095D01*
X84518476Y-92241714D02*
X84518476Y-92908380D01*
X84280380Y-91860761D02*
X84042285Y-92575047D01*
X84661333Y-92575047D01*
X100298285Y-92003619D02*
X100345904Y-91956000D01*
X100441142Y-91908380D01*
X100679238Y-91908380D01*
X100774476Y-91956000D01*
X100822095Y-92003619D01*
X100869714Y-92098857D01*
X100869714Y-92194095D01*
X100822095Y-92336952D01*
X100250666Y-92908380D01*
X100869714Y-92908380D01*
X89630285Y-138993619D02*
X89677904Y-138946000D01*
X89773142Y-138898380D01*
X90011238Y-138898380D01*
X90106476Y-138946000D01*
X90154095Y-138993619D01*
X90201714Y-139088857D01*
X90201714Y-139184095D01*
X90154095Y-139326952D01*
X89582666Y-139898380D01*
X90201714Y-139898380D01*
X103568476Y-92241714D02*
X103568476Y-92908380D01*
X103330380Y-91860761D02*
X103092285Y-92575047D01*
X103711333Y-92575047D01*
X90201714Y-142692380D02*
X89630285Y-142692380D01*
X89916000Y-142692380D02*
X89916000Y-141692380D01*
X89820761Y-141835238D01*
X89725523Y-141930476D01*
X89630285Y-141978095D01*
X82216666Y-141692380D02*
X82835714Y-141692380D01*
X82502380Y-142073333D01*
X82645238Y-142073333D01*
X82740476Y-142120952D01*
X82788095Y-142168571D01*
X82835714Y-142263809D01*
X82835714Y-142501904D01*
X82788095Y-142597142D01*
X82740476Y-142644761D01*
X82645238Y-142692380D01*
X82359523Y-142692380D01*
X82264285Y-142644761D01*
X82216666Y-142597142D01*
X103044666Y-98766380D02*
X103663714Y-98766380D01*
X103330380Y-99147333D01*
X103473238Y-99147333D01*
X103568476Y-99194952D01*
X103616095Y-99242571D01*
X103663714Y-99337809D01*
X103663714Y-99575904D01*
X103616095Y-99671142D01*
X103568476Y-99718761D01*
X103473238Y-99766380D01*
X103187523Y-99766380D01*
X103092285Y-99718761D01*
X103044666Y-99671142D01*
X92741714Y-99766380D02*
X92170285Y-99766380D01*
X92456000Y-99766380D02*
X92456000Y-98766380D01*
X92360761Y-98909238D01*
X92265523Y-99004476D01*
X92170285Y-99052095D01*
X82740476Y-139231714D02*
X82740476Y-139898380D01*
X82502380Y-138850761D02*
X82264285Y-139565047D01*
X82883333Y-139565047D01*
X92170285Y-92003619D02*
X92217904Y-91956000D01*
X92313142Y-91908380D01*
X92551238Y-91908380D01*
X92646476Y-91956000D01*
X92694095Y-92003619D01*
X92741714Y-92098857D01*
X92741714Y-92194095D01*
X92694095Y-92336952D01*
X92122666Y-92908380D01*
X92741714Y-92908380D01*
X95440476Y-92241714D02*
X95440476Y-92908380D01*
X95202380Y-91860761D02*
X94964285Y-92575047D01*
X95583333Y-92575047D01*
X86836285Y-92003619D02*
X86883904Y-91956000D01*
X86979142Y-91908380D01*
X87217238Y-91908380D01*
X87312476Y-91956000D01*
X87360095Y-92003619D01*
X87407714Y-92098857D01*
X87407714Y-92194095D01*
X87360095Y-92336952D01*
X86788666Y-92908380D01*
X87407714Y-92908380D01*
X87407714Y-99766380D02*
X86836285Y-99766380D01*
X87122000Y-99766380D02*
X87122000Y-98766380D01*
X87026761Y-98909238D01*
X86931523Y-99004476D01*
X86836285Y-99052095D01*
G04 #@! TO.C,TP4*
X100338095Y-85177380D02*
X100909523Y-85177380D01*
X100623809Y-86177380D02*
X100623809Y-85177380D01*
X101242857Y-86177380D02*
X101242857Y-85177380D01*
X101623809Y-85177380D01*
X101719047Y-85225000D01*
X101766666Y-85272619D01*
X101814285Y-85367857D01*
X101814285Y-85510714D01*
X101766666Y-85605952D01*
X101719047Y-85653571D01*
X101623809Y-85701190D01*
X101242857Y-85701190D01*
X102671428Y-85510714D02*
X102671428Y-86177380D01*
X102433333Y-85129761D02*
X102195238Y-85844047D01*
X102814285Y-85844047D01*
G04 #@! TO.C,C10*
X95877142Y-129897142D02*
X95829523Y-129944761D01*
X95686666Y-129992380D01*
X95591428Y-129992380D01*
X95448571Y-129944761D01*
X95353333Y-129849523D01*
X95305714Y-129754285D01*
X95258095Y-129563809D01*
X95258095Y-129420952D01*
X95305714Y-129230476D01*
X95353333Y-129135238D01*
X95448571Y-129040000D01*
X95591428Y-128992380D01*
X95686666Y-128992380D01*
X95829523Y-129040000D01*
X95877142Y-129087619D01*
X96829523Y-129992380D02*
X96258095Y-129992380D01*
X96543809Y-129992380D02*
X96543809Y-128992380D01*
X96448571Y-129135238D01*
X96353333Y-129230476D01*
X96258095Y-129278095D01*
X97448571Y-128992380D02*
X97543809Y-128992380D01*
X97639047Y-129040000D01*
X97686666Y-129087619D01*
X97734285Y-129182857D01*
X97781904Y-129373333D01*
X97781904Y-129611428D01*
X97734285Y-129801904D01*
X97686666Y-129897142D01*
X97639047Y-129944761D01*
X97543809Y-129992380D01*
X97448571Y-129992380D01*
X97353333Y-129944761D01*
X97305714Y-129897142D01*
X97258095Y-129801904D01*
X97210476Y-129611428D01*
X97210476Y-129373333D01*
X97258095Y-129182857D01*
X97305714Y-129087619D01*
X97353333Y-129040000D01*
X97448571Y-128992380D01*
G04 #@! TO.C,C8*
X92520987Y-101677148D02*
X92473368Y-101724767D01*
X92330511Y-101772386D01*
X92235273Y-101772386D01*
X92092415Y-101724767D01*
X91997177Y-101629529D01*
X91949558Y-101534291D01*
X91901939Y-101343815D01*
X91901939Y-101200958D01*
X91949558Y-101010482D01*
X91997177Y-100915244D01*
X92092415Y-100820006D01*
X92235273Y-100772386D01*
X92330511Y-100772386D01*
X92473368Y-100820006D01*
X92520987Y-100867625D01*
X93092415Y-101200958D02*
X92997177Y-101153339D01*
X92949558Y-101105720D01*
X92901939Y-101010482D01*
X92901939Y-100962863D01*
X92949558Y-100867625D01*
X92997177Y-100820006D01*
X93092415Y-100772386D01*
X93282892Y-100772386D01*
X93378130Y-100820006D01*
X93425749Y-100867625D01*
X93473368Y-100962863D01*
X93473368Y-101010482D01*
X93425749Y-101105720D01*
X93378130Y-101153339D01*
X93282892Y-101200958D01*
X93092415Y-101200958D01*
X92997177Y-101248577D01*
X92949558Y-101296196D01*
X92901939Y-101391434D01*
X92901939Y-101581910D01*
X92949558Y-101677148D01*
X92997177Y-101724767D01*
X93092415Y-101772386D01*
X93282892Y-101772386D01*
X93378130Y-101724767D01*
X93425749Y-101677148D01*
X93473368Y-101581910D01*
X93473368Y-101391434D01*
X93425749Y-101296196D01*
X93378130Y-101248577D01*
X93282892Y-101200958D01*
G04 #@! TO.C,TP1*
X112403095Y-85177380D02*
X112974523Y-85177380D01*
X112688809Y-86177380D02*
X112688809Y-85177380D01*
X113307857Y-86177380D02*
X113307857Y-85177380D01*
X113688809Y-85177380D01*
X113784047Y-85225000D01*
X113831666Y-85272619D01*
X113879285Y-85367857D01*
X113879285Y-85510714D01*
X113831666Y-85605952D01*
X113784047Y-85653571D01*
X113688809Y-85701190D01*
X113307857Y-85701190D01*
X114831666Y-86177380D02*
X114260238Y-86177380D01*
X114545952Y-86177380D02*
X114545952Y-85177380D01*
X114450714Y-85320238D01*
X114355476Y-85415476D01*
X114260238Y-85463095D01*
G04 #@! TO.C,U1*
X73112380Y-107441904D02*
X73921904Y-107441904D01*
X74017142Y-107394285D01*
X74064761Y-107346666D01*
X74112380Y-107251428D01*
X74112380Y-107060952D01*
X74064761Y-106965714D01*
X74017142Y-106918095D01*
X73921904Y-106870476D01*
X73112380Y-106870476D01*
X74112380Y-105870476D02*
X74112380Y-106441904D01*
X74112380Y-106156190D02*
X73112380Y-106156190D01*
X73255238Y-106251428D01*
X73350476Y-106346666D01*
X73398095Y-106441904D01*
G04 #@! TO.C,R12*
X93315254Y-107504150D02*
X92981921Y-107027960D01*
X92743826Y-107504150D02*
X92743826Y-106504150D01*
X93124778Y-106504150D01*
X93220016Y-106551770D01*
X93267635Y-106599389D01*
X93315254Y-106694627D01*
X93315254Y-106837484D01*
X93267635Y-106932722D01*
X93220016Y-106980341D01*
X93124778Y-107027960D01*
X92743826Y-107027960D01*
X94267635Y-107504150D02*
X93696207Y-107504150D01*
X93981921Y-107504150D02*
X93981921Y-106504150D01*
X93886683Y-106647008D01*
X93791445Y-106742246D01*
X93696207Y-106789865D01*
X94648588Y-106599389D02*
X94696207Y-106551770D01*
X94791445Y-106504150D01*
X95029540Y-106504150D01*
X95124778Y-106551770D01*
X95172397Y-106599389D01*
X95220016Y-106694627D01*
X95220016Y-106789865D01*
X95172397Y-106932722D01*
X94600969Y-107504150D01*
X95220016Y-107504150D01*
G04 #@! TO.C,R10*
X86570924Y-106895690D02*
X86094734Y-107229023D01*
X86570924Y-107467118D02*
X85570924Y-107467118D01*
X85570924Y-107086166D01*
X85618544Y-106990928D01*
X85666163Y-106943309D01*
X85761401Y-106895690D01*
X85904258Y-106895690D01*
X85999496Y-106943309D01*
X86047115Y-106990928D01*
X86094734Y-107086166D01*
X86094734Y-107467118D01*
X86570924Y-105943309D02*
X86570924Y-106514737D01*
X86570924Y-106229023D02*
X85570924Y-106229023D01*
X85713782Y-106324261D01*
X85809020Y-106419499D01*
X85856639Y-106514737D01*
X85570924Y-105324261D02*
X85570924Y-105229023D01*
X85618544Y-105133785D01*
X85666163Y-105086166D01*
X85761401Y-105038547D01*
X85951877Y-104990928D01*
X86189972Y-104990928D01*
X86380448Y-105038547D01*
X86475686Y-105086166D01*
X86523305Y-105133785D01*
X86570924Y-105229023D01*
X86570924Y-105324261D01*
X86523305Y-105419499D01*
X86475686Y-105467118D01*
X86380448Y-105514737D01*
X86189972Y-105562356D01*
X85951877Y-105562356D01*
X85761401Y-105514737D01*
X85666163Y-105467118D01*
X85618544Y-105419499D01*
X85570924Y-105324261D01*
G04 #@! TO.C,R1*
X109401729Y-111223716D02*
X108925539Y-111557050D01*
X109401729Y-111795145D02*
X108401729Y-111795145D01*
X108401729Y-111414192D01*
X108449349Y-111318954D01*
X108496968Y-111271335D01*
X108592206Y-111223716D01*
X108735063Y-111223716D01*
X108830301Y-111271335D01*
X108877920Y-111318954D01*
X108925539Y-111414192D01*
X108925539Y-111795145D01*
X109401729Y-110271335D02*
X109401729Y-110842764D01*
X109401729Y-110557050D02*
X108401729Y-110557050D01*
X108544587Y-110652288D01*
X108639825Y-110747526D01*
X108687444Y-110842764D01*
G04 #@! TO.C,C11*
X88302030Y-132437142D02*
X88254411Y-132484761D01*
X88111554Y-132532380D01*
X88016316Y-132532380D01*
X87873459Y-132484761D01*
X87778221Y-132389523D01*
X87730602Y-132294285D01*
X87682983Y-132103809D01*
X87682983Y-131960952D01*
X87730602Y-131770476D01*
X87778221Y-131675238D01*
X87873459Y-131580000D01*
X88016316Y-131532380D01*
X88111554Y-131532380D01*
X88254411Y-131580000D01*
X88302030Y-131627619D01*
X89254411Y-132532380D02*
X88682983Y-132532380D01*
X88968697Y-132532380D02*
X88968697Y-131532380D01*
X88873459Y-131675238D01*
X88778221Y-131770476D01*
X88682983Y-131818095D01*
X90206792Y-132532380D02*
X89635364Y-132532380D01*
X89921078Y-132532380D02*
X89921078Y-131532380D01*
X89825840Y-131675238D01*
X89730602Y-131770476D01*
X89635364Y-131818095D01*
D11*
G04 #@! TO.C,J1*
X121242666Y-88204523D02*
X121242666Y-89111666D01*
X121182190Y-89293095D01*
X121061238Y-89414047D01*
X120879809Y-89474523D01*
X120758857Y-89474523D01*
X122512666Y-89474523D02*
X121786952Y-89474523D01*
X122149809Y-89474523D02*
X122149809Y-88204523D01*
X122028857Y-88385952D01*
X121907904Y-88506904D01*
X121786952Y-88567380D01*
D10*
G04 #@! TO.C,R3*
X116432928Y-100506611D02*
X115956738Y-100839945D01*
X116432928Y-101078040D02*
X115432928Y-101078040D01*
X115432928Y-100697087D01*
X115480548Y-100601849D01*
X115528167Y-100554230D01*
X115623405Y-100506611D01*
X115766262Y-100506611D01*
X115861500Y-100554230D01*
X115909119Y-100601849D01*
X115956738Y-100697087D01*
X115956738Y-101078040D01*
X115432928Y-100173278D02*
X115432928Y-99554230D01*
X115813881Y-99887564D01*
X115813881Y-99744706D01*
X115861500Y-99649468D01*
X115909119Y-99601849D01*
X116004357Y-99554230D01*
X116242452Y-99554230D01*
X116337690Y-99601849D01*
X116385309Y-99649468D01*
X116432928Y-99744706D01*
X116432928Y-100030421D01*
X116385309Y-100125659D01*
X116337690Y-100173278D01*
G04 #@! TO.C,C1*
X106005333Y-132183142D02*
X105957714Y-132230761D01*
X105814857Y-132278380D01*
X105719619Y-132278380D01*
X105576761Y-132230761D01*
X105481523Y-132135523D01*
X105433904Y-132040285D01*
X105386285Y-131849809D01*
X105386285Y-131706952D01*
X105433904Y-131516476D01*
X105481523Y-131421238D01*
X105576761Y-131326000D01*
X105719619Y-131278380D01*
X105814857Y-131278380D01*
X105957714Y-131326000D01*
X106005333Y-131373619D01*
X106957714Y-132278380D02*
X106386285Y-132278380D01*
X106672000Y-132278380D02*
X106672000Y-131278380D01*
X106576761Y-131421238D01*
X106481523Y-131516476D01*
X106386285Y-131564095D01*
G04 #@! TO.C,JP2*
X101020666Y-90638380D02*
X101020666Y-91352666D01*
X100973047Y-91495523D01*
X100877809Y-91590761D01*
X100734952Y-91638380D01*
X100639714Y-91638380D01*
X101496857Y-91638380D02*
X101496857Y-90638380D01*
X101877809Y-90638380D01*
X101973047Y-90686000D01*
X102020666Y-90733619D01*
X102068285Y-90828857D01*
X102068285Y-90971714D01*
X102020666Y-91066952D01*
X101973047Y-91114571D01*
X101877809Y-91162190D01*
X101496857Y-91162190D01*
X102449238Y-90733619D02*
X102496857Y-90686000D01*
X102592095Y-90638380D01*
X102830190Y-90638380D01*
X102925428Y-90686000D01*
X102973047Y-90733619D01*
X103020666Y-90828857D01*
X103020666Y-90924095D01*
X102973047Y-91066952D01*
X102401619Y-91638380D01*
X103020666Y-91638380D01*
G04 #@! TO.C,R9*
X111847333Y-135834380D02*
X111514000Y-135358190D01*
X111275904Y-135834380D02*
X111275904Y-134834380D01*
X111656857Y-134834380D01*
X111752095Y-134882000D01*
X111799714Y-134929619D01*
X111847333Y-135024857D01*
X111847333Y-135167714D01*
X111799714Y-135262952D01*
X111752095Y-135310571D01*
X111656857Y-135358190D01*
X111275904Y-135358190D01*
X112323523Y-135834380D02*
X112514000Y-135834380D01*
X112609238Y-135786761D01*
X112656857Y-135739142D01*
X112752095Y-135596285D01*
X112799714Y-135405809D01*
X112799714Y-135024857D01*
X112752095Y-134929619D01*
X112704476Y-134882000D01*
X112609238Y-134834380D01*
X112418761Y-134834380D01*
X112323523Y-134882000D01*
X112275904Y-134929619D01*
X112228285Y-135024857D01*
X112228285Y-135262952D01*
X112275904Y-135358190D01*
X112323523Y-135405809D01*
X112418761Y-135453428D01*
X112609238Y-135453428D01*
X112704476Y-135405809D01*
X112752095Y-135358190D01*
X112799714Y-135262952D01*
G04 #@! TO.C,TP3*
X93988095Y-85177380D02*
X94559523Y-85177380D01*
X94273809Y-86177380D02*
X94273809Y-85177380D01*
X94892857Y-86177380D02*
X94892857Y-85177380D01*
X95273809Y-85177380D01*
X95369047Y-85225000D01*
X95416666Y-85272619D01*
X95464285Y-85367857D01*
X95464285Y-85510714D01*
X95416666Y-85605952D01*
X95369047Y-85653571D01*
X95273809Y-85701190D01*
X94892857Y-85701190D01*
X95797619Y-85177380D02*
X96416666Y-85177380D01*
X96083333Y-85558333D01*
X96226190Y-85558333D01*
X96321428Y-85605952D01*
X96369047Y-85653571D01*
X96416666Y-85748809D01*
X96416666Y-85986904D01*
X96369047Y-86082142D01*
X96321428Y-86129761D01*
X96226190Y-86177380D01*
X95940476Y-86177380D01*
X95845238Y-86129761D01*
X95797619Y-86082142D01*
G04 #@! TO.C,C7*
X110577333Y-91035142D02*
X110529714Y-91082761D01*
X110386857Y-91130380D01*
X110291619Y-91130380D01*
X110148761Y-91082761D01*
X110053523Y-90987523D01*
X110005904Y-90892285D01*
X109958285Y-90701809D01*
X109958285Y-90558952D01*
X110005904Y-90368476D01*
X110053523Y-90273238D01*
X110148761Y-90178000D01*
X110291619Y-90130380D01*
X110386857Y-90130380D01*
X110529714Y-90178000D01*
X110577333Y-90225619D01*
X110910666Y-90130380D02*
X111577333Y-90130380D01*
X111148761Y-91130380D01*
D11*
G04 #@! TO.C,J2*
X87080666Y-88204523D02*
X87080666Y-89111666D01*
X87020190Y-89293095D01*
X86899238Y-89414047D01*
X86717809Y-89474523D01*
X86596857Y-89474523D01*
X87624952Y-88325476D02*
X87685428Y-88265000D01*
X87806380Y-88204523D01*
X88108761Y-88204523D01*
X88229714Y-88265000D01*
X88290190Y-88325476D01*
X88350666Y-88446428D01*
X88350666Y-88567380D01*
X88290190Y-88748809D01*
X87564476Y-89474523D01*
X88350666Y-89474523D01*
D10*
G04 #@! TO.C,R6*
X122261333Y-144978380D02*
X121928000Y-144502190D01*
X121689904Y-144978380D02*
X121689904Y-143978380D01*
X122070857Y-143978380D01*
X122166095Y-144026000D01*
X122213714Y-144073619D01*
X122261333Y-144168857D01*
X122261333Y-144311714D01*
X122213714Y-144406952D01*
X122166095Y-144454571D01*
X122070857Y-144502190D01*
X121689904Y-144502190D01*
X123118476Y-143978380D02*
X122928000Y-143978380D01*
X122832761Y-144026000D01*
X122785142Y-144073619D01*
X122689904Y-144216476D01*
X122642285Y-144406952D01*
X122642285Y-144787904D01*
X122689904Y-144883142D01*
X122737523Y-144930761D01*
X122832761Y-144978380D01*
X123023238Y-144978380D01*
X123118476Y-144930761D01*
X123166095Y-144883142D01*
X123213714Y-144787904D01*
X123213714Y-144549809D01*
X123166095Y-144454571D01*
X123118476Y-144406952D01*
X123023238Y-144359333D01*
X122832761Y-144359333D01*
X122737523Y-144406952D01*
X122689904Y-144454571D01*
X122642285Y-144549809D01*
G04 #@! TO.C,JP3*
X93146666Y-90638380D02*
X93146666Y-91352666D01*
X93099047Y-91495523D01*
X93003809Y-91590761D01*
X92860952Y-91638380D01*
X92765714Y-91638380D01*
X93622857Y-91638380D02*
X93622857Y-90638380D01*
X94003809Y-90638380D01*
X94099047Y-90686000D01*
X94146666Y-90733619D01*
X94194285Y-90828857D01*
X94194285Y-90971714D01*
X94146666Y-91066952D01*
X94099047Y-91114571D01*
X94003809Y-91162190D01*
X93622857Y-91162190D01*
X94527619Y-90638380D02*
X95146666Y-90638380D01*
X94813333Y-91019333D01*
X94956190Y-91019333D01*
X95051428Y-91066952D01*
X95099047Y-91114571D01*
X95146666Y-91209809D01*
X95146666Y-91447904D01*
X95099047Y-91543142D01*
X95051428Y-91590761D01*
X94956190Y-91638380D01*
X94670476Y-91638380D01*
X94575238Y-91590761D01*
X94527619Y-91543142D01*
G04 #@! TO.C,JP1*
X85416666Y-136612380D02*
X85416666Y-137326666D01*
X85369047Y-137469523D01*
X85273809Y-137564761D01*
X85130952Y-137612380D01*
X85035714Y-137612380D01*
X85892857Y-137612380D02*
X85892857Y-136612380D01*
X86273809Y-136612380D01*
X86369047Y-136660000D01*
X86416666Y-136707619D01*
X86464285Y-136802857D01*
X86464285Y-136945714D01*
X86416666Y-137040952D01*
X86369047Y-137088571D01*
X86273809Y-137136190D01*
X85892857Y-137136190D01*
X87416666Y-137612380D02*
X86845238Y-137612380D01*
X87130952Y-137612380D02*
X87130952Y-136612380D01*
X87035714Y-136755238D01*
X86940476Y-136850476D01*
X86845238Y-136898095D01*
G04 #@! TO.C,R7*
X122515333Y-136088380D02*
X122182000Y-135612190D01*
X121943904Y-136088380D02*
X121943904Y-135088380D01*
X122324857Y-135088380D01*
X122420095Y-135136000D01*
X122467714Y-135183619D01*
X122515333Y-135278857D01*
X122515333Y-135421714D01*
X122467714Y-135516952D01*
X122420095Y-135564571D01*
X122324857Y-135612190D01*
X121943904Y-135612190D01*
X122848666Y-135088380D02*
X123515333Y-135088380D01*
X123086761Y-136088380D01*
G04 #@! TO.C,R8*
X111593333Y-144851380D02*
X111260000Y-144375190D01*
X111021904Y-144851380D02*
X111021904Y-143851380D01*
X111402857Y-143851380D01*
X111498095Y-143899000D01*
X111545714Y-143946619D01*
X111593333Y-144041857D01*
X111593333Y-144184714D01*
X111545714Y-144279952D01*
X111498095Y-144327571D01*
X111402857Y-144375190D01*
X111021904Y-144375190D01*
X112164761Y-144279952D02*
X112069523Y-144232333D01*
X112021904Y-144184714D01*
X111974285Y-144089476D01*
X111974285Y-144041857D01*
X112021904Y-143946619D01*
X112069523Y-143899000D01*
X112164761Y-143851380D01*
X112355238Y-143851380D01*
X112450476Y-143899000D01*
X112498095Y-143946619D01*
X112545714Y-144041857D01*
X112545714Y-144089476D01*
X112498095Y-144184714D01*
X112450476Y-144232333D01*
X112355238Y-144279952D01*
X112164761Y-144279952D01*
X112069523Y-144327571D01*
X112021904Y-144375190D01*
X111974285Y-144470428D01*
X111974285Y-144660904D01*
X112021904Y-144756142D01*
X112069523Y-144803761D01*
X112164761Y-144851380D01*
X112355238Y-144851380D01*
X112450476Y-144803761D01*
X112498095Y-144756142D01*
X112545714Y-144660904D01*
X112545714Y-144470428D01*
X112498095Y-144375190D01*
X112450476Y-144327571D01*
X112355238Y-144279952D01*
G04 #@! TO.C,R13*
X87947397Y-115643320D02*
X87614064Y-115167130D01*
X87375969Y-115643320D02*
X87375969Y-114643320D01*
X87756921Y-114643320D01*
X87852159Y-114690940D01*
X87899778Y-114738559D01*
X87947397Y-114833797D01*
X87947397Y-114976654D01*
X87899778Y-115071892D01*
X87852159Y-115119511D01*
X87756921Y-115167130D01*
X87375969Y-115167130D01*
X88899778Y-115643320D02*
X88328350Y-115643320D01*
X88614064Y-115643320D02*
X88614064Y-114643320D01*
X88518826Y-114786178D01*
X88423588Y-114881416D01*
X88328350Y-114929035D01*
X89233112Y-114643320D02*
X89852159Y-114643320D01*
X89518826Y-115024273D01*
X89661683Y-115024273D01*
X89756921Y-115071892D01*
X89804540Y-115119511D01*
X89852159Y-115214749D01*
X89852159Y-115452844D01*
X89804540Y-115548082D01*
X89756921Y-115595701D01*
X89661683Y-115643320D01*
X89375969Y-115643320D01*
X89280731Y-115595701D01*
X89233112Y-115548082D01*
G04 #@! TO.C,R11*
X101582105Y-101755742D02*
X101248772Y-101279552D01*
X101010677Y-101755742D02*
X101010677Y-100755742D01*
X101391629Y-100755742D01*
X101486867Y-100803362D01*
X101534486Y-100850981D01*
X101582105Y-100946219D01*
X101582105Y-101089076D01*
X101534486Y-101184314D01*
X101486867Y-101231933D01*
X101391629Y-101279552D01*
X101010677Y-101279552D01*
X102534486Y-101755742D02*
X101963058Y-101755742D01*
X102248772Y-101755742D02*
X102248772Y-100755742D01*
X102153534Y-100898600D01*
X102058296Y-100993838D01*
X101963058Y-101041457D01*
X103486867Y-101755742D02*
X102915439Y-101755742D01*
X103201153Y-101755742D02*
X103201153Y-100755742D01*
X103105915Y-100898600D01*
X103010677Y-100993838D01*
X102915439Y-101041457D01*
G04 #@! TO.C,C6*
X110768854Y-99569344D02*
X110721235Y-99616963D01*
X110578378Y-99664582D01*
X110483140Y-99664582D01*
X110340282Y-99616963D01*
X110245044Y-99521725D01*
X110197425Y-99426487D01*
X110149806Y-99236011D01*
X110149806Y-99093154D01*
X110197425Y-98902678D01*
X110245044Y-98807440D01*
X110340282Y-98712202D01*
X110483140Y-98664582D01*
X110578378Y-98664582D01*
X110721235Y-98712202D01*
X110768854Y-98759821D01*
X111625997Y-98664582D02*
X111435521Y-98664582D01*
X111340282Y-98712202D01*
X111292663Y-98759821D01*
X111197425Y-98902678D01*
X111149806Y-99093154D01*
X111149806Y-99474106D01*
X111197425Y-99569344D01*
X111245044Y-99616963D01*
X111340282Y-99664582D01*
X111530759Y-99664582D01*
X111625997Y-99616963D01*
X111673616Y-99569344D01*
X111721235Y-99474106D01*
X111721235Y-99236011D01*
X111673616Y-99140773D01*
X111625997Y-99093154D01*
X111530759Y-99045535D01*
X111340282Y-99045535D01*
X111245044Y-99093154D01*
X111197425Y-99140773D01*
X111149806Y-99236011D01*
G04 #@! TO.C,TP2*
X106053095Y-85177380D02*
X106624523Y-85177380D01*
X106338809Y-86177380D02*
X106338809Y-85177380D01*
X106957857Y-86177380D02*
X106957857Y-85177380D01*
X107338809Y-85177380D01*
X107434047Y-85225000D01*
X107481666Y-85272619D01*
X107529285Y-85367857D01*
X107529285Y-85510714D01*
X107481666Y-85605952D01*
X107434047Y-85653571D01*
X107338809Y-85701190D01*
X106957857Y-85701190D01*
X107910238Y-85272619D02*
X107957857Y-85225000D01*
X108053095Y-85177380D01*
X108291190Y-85177380D01*
X108386428Y-85225000D01*
X108434047Y-85272619D01*
X108481666Y-85367857D01*
X108481666Y-85463095D01*
X108434047Y-85605952D01*
X107862619Y-86177380D01*
X108481666Y-86177380D01*
G04 #@! TO.C,C3*
X125249092Y-106843934D02*
X125296711Y-106891553D01*
X125344330Y-107034410D01*
X125344330Y-107129648D01*
X125296711Y-107272506D01*
X125201473Y-107367744D01*
X125106235Y-107415363D01*
X124915759Y-107462982D01*
X124772902Y-107462982D01*
X124582426Y-107415363D01*
X124487188Y-107367744D01*
X124391950Y-107272506D01*
X124344330Y-107129648D01*
X124344330Y-107034410D01*
X124391950Y-106891553D01*
X124439569Y-106843934D01*
X124344330Y-106510601D02*
X124344330Y-105891553D01*
X124725283Y-106224887D01*
X124725283Y-106082029D01*
X124772902Y-105986791D01*
X124820521Y-105939172D01*
X124915759Y-105891553D01*
X125153854Y-105891553D01*
X125249092Y-105939172D01*
X125296711Y-105986791D01*
X125344330Y-106082029D01*
X125344330Y-106367744D01*
X125296711Y-106462982D01*
X125249092Y-106510601D01*
D11*
G04 #@! TO.C,RV1*
X97796047Y-168214523D02*
X97372714Y-167609761D01*
X97070333Y-168214523D02*
X97070333Y-166944523D01*
X97554142Y-166944523D01*
X97675095Y-167005000D01*
X97735571Y-167065476D01*
X97796047Y-167186428D01*
X97796047Y-167367857D01*
X97735571Y-167488809D01*
X97675095Y-167549285D01*
X97554142Y-167609761D01*
X97070333Y-167609761D01*
X98158904Y-166944523D02*
X98582238Y-168214523D01*
X99005571Y-166944523D01*
X100094142Y-168214523D02*
X99368428Y-168214523D01*
X99731285Y-168214523D02*
X99731285Y-166944523D01*
X99610333Y-167125952D01*
X99489380Y-167246904D01*
X99368428Y-167307380D01*
D10*
G04 #@! TO.C,C9*
X102998218Y-111257005D02*
X103045837Y-111304624D01*
X103093456Y-111447481D01*
X103093456Y-111542719D01*
X103045837Y-111685577D01*
X102950599Y-111780815D01*
X102855361Y-111828434D01*
X102664885Y-111876053D01*
X102522028Y-111876053D01*
X102331552Y-111828434D01*
X102236314Y-111780815D01*
X102141076Y-111685577D01*
X102093456Y-111542719D01*
X102093456Y-111447481D01*
X102141076Y-111304624D01*
X102188695Y-111257005D01*
X103093456Y-110780815D02*
X103093456Y-110590339D01*
X103045837Y-110495100D01*
X102998218Y-110447481D01*
X102855361Y-110352243D01*
X102664885Y-110304624D01*
X102283933Y-110304624D01*
X102188695Y-110352243D01*
X102141076Y-110399862D01*
X102093456Y-110495100D01*
X102093456Y-110685577D01*
X102141076Y-110780815D01*
X102188695Y-110828434D01*
X102283933Y-110876053D01*
X102522028Y-110876053D01*
X102617266Y-110828434D01*
X102664885Y-110780815D01*
X102712504Y-110685577D01*
X102712504Y-110495100D01*
X102664885Y-110399862D01*
X102617266Y-110352243D01*
X102522028Y-110304624D01*
D11*
G04 #@! TO.C,IC2*
X88168238Y-120970523D02*
X88168238Y-119700523D01*
X89498714Y-120849571D02*
X89438238Y-120910047D01*
X89256809Y-120970523D01*
X89135857Y-120970523D01*
X88954428Y-120910047D01*
X88833476Y-120789095D01*
X88773000Y-120668142D01*
X88712523Y-120426238D01*
X88712523Y-120244809D01*
X88773000Y-120002904D01*
X88833476Y-119881952D01*
X88954428Y-119761000D01*
X89135857Y-119700523D01*
X89256809Y-119700523D01*
X89438238Y-119761000D01*
X89498714Y-119821476D01*
X89982523Y-119821476D02*
X90043000Y-119761000D01*
X90163952Y-119700523D01*
X90466333Y-119700523D01*
X90587285Y-119761000D01*
X90647761Y-119821476D01*
X90708238Y-119942428D01*
X90708238Y-120063380D01*
X90647761Y-120244809D01*
X89922047Y-120970523D01*
X90708238Y-120970523D01*
X94645238Y-120589523D02*
X94645238Y-119319523D01*
X95975714Y-120468571D02*
X95915238Y-120529047D01*
X95733809Y-120589523D01*
X95612857Y-120589523D01*
X95431428Y-120529047D01*
X95310476Y-120408095D01*
X95250000Y-120287142D01*
X95189523Y-120045238D01*
X95189523Y-119863809D01*
X95250000Y-119621904D01*
X95310476Y-119500952D01*
X95431428Y-119380000D01*
X95612857Y-119319523D01*
X95733809Y-119319523D01*
X95915238Y-119380000D01*
X95975714Y-119440476D01*
X96459523Y-119440476D02*
X96520000Y-119380000D01*
X96640952Y-119319523D01*
X96943333Y-119319523D01*
X97064285Y-119380000D01*
X97124761Y-119440476D01*
X97185238Y-119561428D01*
X97185238Y-119682380D01*
X97124761Y-119863809D01*
X96399047Y-120589523D01*
X97185238Y-120589523D01*
D10*
G04 #@! TO.C,R2*
X111831380Y-106846666D02*
X111355190Y-107180000D01*
X111831380Y-107418095D02*
X110831380Y-107418095D01*
X110831380Y-107037142D01*
X110879000Y-106941904D01*
X110926619Y-106894285D01*
X111021857Y-106846666D01*
X111164714Y-106846666D01*
X111259952Y-106894285D01*
X111307571Y-106941904D01*
X111355190Y-107037142D01*
X111355190Y-107418095D01*
X110926619Y-106465714D02*
X110879000Y-106418095D01*
X110831380Y-106322857D01*
X110831380Y-106084761D01*
X110879000Y-105989523D01*
X110926619Y-105941904D01*
X111021857Y-105894285D01*
X111117095Y-105894285D01*
X111259952Y-105941904D01*
X111831380Y-106513333D01*
X111831380Y-105894285D01*
G04 #@! TO.C,C4*
X105378384Y-121426805D02*
X105426003Y-121474424D01*
X105473622Y-121617281D01*
X105473622Y-121712519D01*
X105426003Y-121855377D01*
X105330765Y-121950615D01*
X105235527Y-121998234D01*
X105045051Y-122045853D01*
X104902194Y-122045853D01*
X104711718Y-121998234D01*
X104616480Y-121950615D01*
X104521242Y-121855377D01*
X104473622Y-121712519D01*
X104473622Y-121617281D01*
X104521242Y-121474424D01*
X104568861Y-121426805D01*
X104806956Y-120569662D02*
X105473622Y-120569662D01*
X104426003Y-120807758D02*
X105140289Y-121045853D01*
X105140289Y-120426805D01*
G04 #@! TO.C,C5*
X123531333Y-131548142D02*
X123483714Y-131595761D01*
X123340857Y-131643380D01*
X123245619Y-131643380D01*
X123102761Y-131595761D01*
X123007523Y-131500523D01*
X122959904Y-131405285D01*
X122912285Y-131214809D01*
X122912285Y-131071952D01*
X122959904Y-130881476D01*
X123007523Y-130786238D01*
X123102761Y-130691000D01*
X123245619Y-130643380D01*
X123340857Y-130643380D01*
X123483714Y-130691000D01*
X123531333Y-130738619D01*
X124436095Y-130643380D02*
X123959904Y-130643380D01*
X123912285Y-131119571D01*
X123959904Y-131071952D01*
X124055142Y-131024333D01*
X124293238Y-131024333D01*
X124388476Y-131071952D01*
X124436095Y-131119571D01*
X124483714Y-131214809D01*
X124483714Y-131452904D01*
X124436095Y-131548142D01*
X124388476Y-131595761D01*
X124293238Y-131643380D01*
X124055142Y-131643380D01*
X123959904Y-131595761D01*
X123912285Y-131548142D01*
G04 #@! TO.C,R5*
X125319363Y-118977788D02*
X124843173Y-119311122D01*
X125319363Y-119549217D02*
X124319363Y-119549217D01*
X124319363Y-119168264D01*
X124366983Y-119073026D01*
X124414602Y-119025407D01*
X124509840Y-118977788D01*
X124652697Y-118977788D01*
X124747935Y-119025407D01*
X124795554Y-119073026D01*
X124843173Y-119168264D01*
X124843173Y-119549217D01*
X124319363Y-118073026D02*
X124319363Y-118549217D01*
X124795554Y-118596836D01*
X124747935Y-118549217D01*
X124700316Y-118453979D01*
X124700316Y-118215883D01*
X124747935Y-118120645D01*
X124795554Y-118073026D01*
X124890792Y-118025407D01*
X125128887Y-118025407D01*
X125224125Y-118073026D01*
X125271744Y-118120645D01*
X125319363Y-118215883D01*
X125319363Y-118453979D01*
X125271744Y-118549217D01*
X125224125Y-118596836D01*
G04 #@! TO.C,C2*
X118467142Y-111291666D02*
X118514761Y-111339285D01*
X118562380Y-111482142D01*
X118562380Y-111577380D01*
X118514761Y-111720238D01*
X118419523Y-111815476D01*
X118324285Y-111863095D01*
X118133809Y-111910714D01*
X117990952Y-111910714D01*
X117800476Y-111863095D01*
X117705238Y-111815476D01*
X117610000Y-111720238D01*
X117562380Y-111577380D01*
X117562380Y-111482142D01*
X117610000Y-111339285D01*
X117657619Y-111291666D01*
X117657619Y-110910714D02*
X117610000Y-110863095D01*
X117562380Y-110767857D01*
X117562380Y-110529761D01*
X117610000Y-110434523D01*
X117657619Y-110386904D01*
X117752857Y-110339285D01*
X117848095Y-110339285D01*
X117990952Y-110386904D01*
X118562380Y-110958333D01*
X118562380Y-110339285D01*
D11*
G04 #@! TO.C,IC1*
X114620523Y-130525761D02*
X113350523Y-130525761D01*
X114499571Y-129195285D02*
X114560047Y-129255761D01*
X114620523Y-129437190D01*
X114620523Y-129558142D01*
X114560047Y-129739571D01*
X114439095Y-129860523D01*
X114318142Y-129921000D01*
X114076238Y-129981476D01*
X113894809Y-129981476D01*
X113652904Y-129921000D01*
X113531952Y-129860523D01*
X113411000Y-129739571D01*
X113350523Y-129558142D01*
X113350523Y-129437190D01*
X113411000Y-129255761D01*
X113471476Y-129195285D01*
X114620523Y-127985761D02*
X114620523Y-128711476D01*
X114620523Y-128348619D02*
X113350523Y-128348619D01*
X113531952Y-128469571D01*
X113652904Y-128590523D01*
X113713380Y-128711476D01*
X114874523Y-123794761D02*
X113604523Y-123794761D01*
X114753571Y-122464285D02*
X114814047Y-122524761D01*
X114874523Y-122706190D01*
X114874523Y-122827142D01*
X114814047Y-123008571D01*
X114693095Y-123129523D01*
X114572142Y-123190000D01*
X114330238Y-123250476D01*
X114148809Y-123250476D01*
X113906904Y-123190000D01*
X113785952Y-123129523D01*
X113665000Y-123008571D01*
X113604523Y-122827142D01*
X113604523Y-122706190D01*
X113665000Y-122524761D01*
X113725476Y-122464285D01*
X114874523Y-121254761D02*
X114874523Y-121980476D01*
X114874523Y-121617619D02*
X113604523Y-121617619D01*
X113785952Y-121738571D01*
X113906904Y-121859523D01*
X113967380Y-121980476D01*
G04 #@! TO.C,RV1*
X97796047Y-135956523D02*
X97372714Y-135351761D01*
X97070333Y-135956523D02*
X97070333Y-134686523D01*
X97554142Y-134686523D01*
X97675095Y-134747000D01*
X97735571Y-134807476D01*
X97796047Y-134928428D01*
X97796047Y-135109857D01*
X97735571Y-135230809D01*
X97675095Y-135291285D01*
X97554142Y-135351761D01*
X97070333Y-135351761D01*
X98158904Y-134686523D02*
X98582238Y-135956523D01*
X99005571Y-134686523D01*
X100094142Y-135956523D02*
X99368428Y-135956523D01*
X99731285Y-135956523D02*
X99731285Y-134686523D01*
X99610333Y-134867952D01*
X99489380Y-134988904D01*
X99368428Y-135049380D01*
D10*
G04 #@! TO.C,R4*
X125344330Y-97780994D02*
X124868140Y-98114328D01*
X125344330Y-98352423D02*
X124344330Y-98352423D01*
X124344330Y-97971470D01*
X124391950Y-97876232D01*
X124439569Y-97828613D01*
X124534807Y-97780994D01*
X124677664Y-97780994D01*
X124772902Y-97828613D01*
X124820521Y-97876232D01*
X124868140Y-97971470D01*
X124868140Y-98352423D01*
X124677664Y-96923851D02*
X125344330Y-96923851D01*
X124296711Y-97161947D02*
X125010997Y-97400042D01*
X125010997Y-96780994D01*
D12*
G04 #@! TO.C,TP4*
X103100000Y-88265000D02*
G75*
G03*
X103100000Y-88265000I-1500000J0D01*
G01*
G04 #@! TO.C,C10*
X94050000Y-125945000D02*
X94050000Y-125630000D01*
X98990000Y-125630000D02*
X94050000Y-125630000D01*
X94050000Y-128370000D02*
X94050000Y-128055000D01*
X98990000Y-128370000D02*
X94050000Y-128370000D01*
X98990000Y-125945000D02*
X98990000Y-125630000D01*
X98990000Y-128370000D02*
X98990000Y-128055000D01*
G04 #@! TO.C,C8*
X90240000Y-104560000D02*
X90240000Y-104875000D01*
X95180000Y-104560000D02*
X95180000Y-104875000D01*
X90240000Y-102135000D02*
X95180000Y-102135000D01*
X95180000Y-102135000D02*
X95180000Y-102450000D01*
X90240000Y-104875000D02*
X95180000Y-104875000D01*
X90240000Y-102135000D02*
X90240000Y-102450000D01*
G04 #@! TO.C,TP1*
X115165000Y-88265000D02*
G75*
G03*
X115165000Y-88265000I-1500000J0D01*
G01*
G04 #@! TO.C,R12*
X88805000Y-110590000D02*
X95345000Y-110590000D01*
X88805000Y-110260000D02*
X88805000Y-110590000D01*
X88805000Y-107850000D02*
X95345000Y-107850000D01*
X88805000Y-108180000D02*
X88805000Y-107850000D01*
X95345000Y-110590000D02*
X95345000Y-110260000D01*
X95345000Y-107850000D02*
X95345000Y-108180000D01*
G04 #@! TO.C,R10*
X85190000Y-104045000D02*
X84860000Y-104045000D01*
X84860000Y-110585000D02*
X85190000Y-110585000D01*
X82450000Y-104045000D02*
X82780000Y-104045000D01*
X85190000Y-110585000D02*
X85190000Y-104045000D01*
X82780000Y-110585000D02*
X82450000Y-110585000D01*
X82450000Y-110585000D02*
X82450000Y-104045000D01*
G04 #@! TO.C,R1*
X108050000Y-113760000D02*
X108050000Y-107220000D01*
X107720000Y-113760000D02*
X108050000Y-113760000D01*
X105640000Y-113760000D02*
X105310000Y-113760000D01*
X108050000Y-107220000D02*
X107720000Y-107220000D01*
X105310000Y-107220000D02*
X105640000Y-107220000D01*
X105310000Y-113760000D02*
X105310000Y-107220000D01*
G04 #@! TO.C,C11*
X90345888Y-129310000D02*
X90345888Y-130445000D01*
X89985888Y-129310000D02*
X89985888Y-130635000D01*
X89504888Y-125750000D02*
X89504888Y-127230000D01*
X90185888Y-129310000D02*
X90185888Y-130538000D01*
X90825888Y-126485000D02*
X90825888Y-127230000D01*
X89945888Y-129310000D02*
X89945888Y-130652000D01*
X89544888Y-129310000D02*
X89544888Y-130781000D01*
X90665888Y-126333000D02*
X90665888Y-127230000D01*
X90745888Y-126406000D02*
X90745888Y-127230000D01*
X89865888Y-129310000D02*
X89865888Y-130684000D01*
X89224888Y-129310000D02*
X89224888Y-130835000D01*
X90865888Y-129310000D02*
X90865888Y-130013000D01*
X88984888Y-125690000D02*
X88984888Y-130850000D01*
X89304888Y-125714000D02*
X89304888Y-127230000D01*
X89985888Y-125905000D02*
X89985888Y-127230000D01*
X91145888Y-129310000D02*
X91145888Y-129653000D01*
X89945888Y-125888000D02*
X89945888Y-127230000D01*
X89144888Y-125697000D02*
X89144888Y-130843000D01*
X89705888Y-129310000D02*
X89705888Y-130738000D01*
X90705888Y-126369000D02*
X90705888Y-127230000D01*
X90185888Y-126002000D02*
X90185888Y-127230000D01*
X90665888Y-129310000D02*
X90665888Y-130207000D01*
X86140113Y-126795000D02*
X86640113Y-126795000D01*
X91425888Y-127465000D02*
X91425888Y-129075000D01*
X89584888Y-129310000D02*
X89584888Y-130771000D01*
X90145888Y-125980000D02*
X90145888Y-127230000D01*
X91265888Y-127092000D02*
X91265888Y-129448000D01*
X90065888Y-125941000D02*
X90065888Y-127230000D01*
X89184888Y-125701000D02*
X89184888Y-127230000D01*
X91105888Y-129310000D02*
X91105888Y-129713000D01*
X90305888Y-126070000D02*
X90305888Y-127230000D01*
X91025888Y-126716000D02*
X91025888Y-127230000D01*
X89544888Y-125759000D02*
X89544888Y-127230000D01*
X90225888Y-129310000D02*
X90225888Y-130517000D01*
X90585888Y-129310000D02*
X90585888Y-130274000D01*
X90505888Y-129310000D02*
X90505888Y-130335000D01*
X90265888Y-126046000D02*
X90265888Y-127230000D01*
X91305888Y-127172000D02*
X91305888Y-129368000D01*
X89464888Y-125742000D02*
X89464888Y-127230000D01*
X90145888Y-129310000D02*
X90145888Y-130560000D01*
X89584888Y-125769000D02*
X89584888Y-127230000D01*
X90545888Y-126235000D02*
X90545888Y-127230000D01*
X89224888Y-125705000D02*
X89224888Y-127230000D01*
X90825888Y-129310000D02*
X90825888Y-130055000D01*
X90985888Y-129310000D02*
X90985888Y-129875000D01*
X89624888Y-125779000D02*
X89624888Y-127230000D01*
X91465888Y-127593000D02*
X91465888Y-128947000D01*
X90625888Y-129310000D02*
X90625888Y-130241000D01*
X91025888Y-129310000D02*
X91025888Y-129824000D01*
X91065888Y-129310000D02*
X91065888Y-129770000D01*
X90105888Y-129310000D02*
X90105888Y-130580000D01*
X90745888Y-129310000D02*
X90745888Y-130134000D01*
X90625888Y-126299000D02*
X90625888Y-127230000D01*
X90985888Y-126665000D02*
X90985888Y-127230000D01*
X89665888Y-129310000D02*
X89665888Y-130750000D01*
X89745888Y-125815000D02*
X89745888Y-127230000D01*
X88944888Y-125690000D02*
X88944888Y-130850000D01*
X91385888Y-127355000D02*
X91385888Y-129185000D01*
X90945888Y-126617000D02*
X90945888Y-127230000D01*
X90425888Y-126148000D02*
X90425888Y-127230000D01*
X90065888Y-129310000D02*
X90065888Y-130599000D01*
X90465888Y-126175000D02*
X90465888Y-127230000D01*
X90465888Y-129310000D02*
X90465888Y-130365000D01*
X90585888Y-126266000D02*
X90585888Y-127230000D01*
X89344888Y-125720000D02*
X89344888Y-127230000D01*
X89184888Y-129310000D02*
X89184888Y-130839000D01*
X90105888Y-125960000D02*
X90105888Y-127230000D01*
X89104888Y-125694000D02*
X89104888Y-130846000D01*
X90905888Y-129310000D02*
X90905888Y-129969000D01*
X91065888Y-126770000D02*
X91065888Y-127230000D01*
X89825888Y-129310000D02*
X89825888Y-130698000D01*
X91185888Y-126951000D02*
X91185888Y-127230000D01*
X89384888Y-129310000D02*
X89384888Y-130813000D01*
X90025888Y-125922000D02*
X90025888Y-127230000D01*
X91105888Y-126827000D02*
X91105888Y-127230000D01*
X89785888Y-129310000D02*
X89785888Y-130712000D01*
X90225888Y-126023000D02*
X90225888Y-127230000D01*
X90265888Y-129310000D02*
X90265888Y-130494000D01*
X91145888Y-126887000D02*
X91145888Y-127230000D01*
X89905888Y-129310000D02*
X89905888Y-130668000D01*
X91225888Y-129310000D02*
X91225888Y-129521000D01*
X90025888Y-129310000D02*
X90025888Y-130618000D01*
X89264888Y-125709000D02*
X89264888Y-127230000D01*
X89424888Y-129310000D02*
X89424888Y-130806000D01*
X90345888Y-126095000D02*
X90345888Y-127230000D01*
X89825888Y-125842000D02*
X89825888Y-127230000D01*
X90505888Y-126205000D02*
X90505888Y-127230000D01*
X91505888Y-127752000D02*
X91505888Y-128788000D01*
X90905888Y-126571000D02*
X90905888Y-127230000D01*
X89865888Y-125856000D02*
X89865888Y-127230000D01*
X90865888Y-126527000D02*
X90865888Y-127230000D01*
X90705888Y-129310000D02*
X90705888Y-130171000D01*
X89304888Y-129310000D02*
X89304888Y-130826000D01*
X91545888Y-127986000D02*
X91545888Y-128554000D01*
X90785888Y-129310000D02*
X90785888Y-130096000D01*
X89024888Y-125691000D02*
X89024888Y-130849000D01*
X89504888Y-129310000D02*
X89504888Y-130790000D01*
X90425888Y-129310000D02*
X90425888Y-130392000D01*
X89424888Y-125734000D02*
X89424888Y-127230000D01*
X90785888Y-126444000D02*
X90785888Y-127230000D01*
X89745888Y-129310000D02*
X89745888Y-130725000D01*
X90385888Y-129310000D02*
X90385888Y-130419000D01*
X89344888Y-129310000D02*
X89344888Y-130820000D01*
X89264888Y-129310000D02*
X89264888Y-130831000D01*
X89705888Y-125802000D02*
X89705888Y-127230000D01*
X91345888Y-127259000D02*
X91345888Y-129281000D01*
X90305888Y-129310000D02*
X90305888Y-130470000D01*
X89064888Y-125692000D02*
X89064888Y-130848000D01*
X91185888Y-129310000D02*
X91185888Y-129589000D01*
X86390113Y-126545000D02*
X86390113Y-127045000D01*
X89665888Y-125790000D02*
X89665888Y-127230000D01*
X90545888Y-129310000D02*
X90545888Y-130305000D01*
X91225888Y-127019000D02*
X91225888Y-127230000D01*
X89905888Y-125872000D02*
X89905888Y-127230000D01*
X89464888Y-129310000D02*
X89464888Y-130798000D01*
X90385888Y-126121000D02*
X90385888Y-127230000D01*
X90945888Y-129310000D02*
X90945888Y-129923000D01*
X89785888Y-125828000D02*
X89785888Y-127230000D01*
X89384888Y-125727000D02*
X89384888Y-127230000D01*
X89624888Y-129310000D02*
X89624888Y-130761000D01*
X91564888Y-128270000D02*
G75*
G03*
X91564888Y-128270000I-2620000J0D01*
G01*
D11*
G04 #@! TO.C,J1*
X118666000Y-83120500D02*
X118666000Y-85767500D01*
X124666000Y-76067500D02*
X124666000Y-73567500D01*
X118666000Y-76067500D02*
X118666000Y-80010500D01*
X118666000Y-73567500D02*
X124666000Y-73567500D01*
X118666000Y-76067500D02*
X124666000Y-76067500D01*
X118666000Y-73567500D02*
X118666000Y-76067500D01*
X124666000Y-76067500D02*
X124666000Y-80010500D01*
X124666000Y-83120500D02*
X124666000Y-85767500D01*
D12*
G04 #@! TO.C,R3*
X119480000Y-101060000D02*
X119150000Y-101060000D01*
X117070000Y-94520000D02*
X116740000Y-94520000D01*
X119150000Y-94520000D02*
X119480000Y-94520000D01*
X116740000Y-94520000D02*
X116740000Y-101060000D01*
X119480000Y-94520000D02*
X119480000Y-101060000D01*
X116740000Y-101060000D02*
X117070000Y-101060000D01*
G04 #@! TO.C,C1*
X102305000Y-130910000D02*
X102305000Y-130595000D01*
X107245000Y-128170000D02*
X102305000Y-128170000D01*
X107245000Y-130910000D02*
X107245000Y-130595000D01*
X107245000Y-130910000D02*
X102305000Y-130910000D01*
X102305000Y-128485000D02*
X102305000Y-128170000D01*
X107245000Y-128485000D02*
X107245000Y-128170000D01*
D13*
G04 #@! TO.C,JP2*
X101865000Y-98455000D02*
X101365000Y-98455000D01*
X99315000Y-98455000D02*
X99815000Y-98455000D01*
X101855000Y-93305000D02*
X101355000Y-93305000D01*
X99315000Y-98455000D02*
X99315000Y-97955000D01*
X99450000Y-93315000D02*
X99950000Y-93315000D01*
X99450000Y-93315000D02*
X99450000Y-93815000D01*
D12*
G04 #@! TO.C,R9*
X115030000Y-139165000D02*
X108490000Y-139165000D01*
X115030000Y-138835000D02*
X115030000Y-139165000D01*
X115030000Y-136425000D02*
X108490000Y-136425000D01*
X108490000Y-136425000D02*
X108490000Y-136755000D01*
X115030000Y-136755000D02*
X115030000Y-136425000D01*
X108490000Y-139165000D02*
X108490000Y-138835000D01*
G04 #@! TO.C,TP3*
X96750000Y-88265000D02*
G75*
G03*
X96750000Y-88265000I-1500000J0D01*
G01*
G04 #@! TO.C,C7*
X115380000Y-91475000D02*
X115380000Y-95215000D01*
X108140000Y-95215000D02*
X115380000Y-95215000D01*
X108140000Y-91475000D02*
X108140000Y-95215000D01*
X108140000Y-91475000D02*
X115380000Y-91475000D01*
D11*
G04 #@! TO.C,J2*
X84884000Y-83120500D02*
X84884000Y-85767500D01*
X90884000Y-83120500D02*
X90884000Y-85767500D01*
X84884000Y-73567500D02*
X90884000Y-73567500D01*
X84884000Y-76067500D02*
X84884000Y-80010500D01*
X90884000Y-76067500D02*
X90884000Y-73567500D01*
X90884000Y-76067500D02*
X90884000Y-80010500D01*
X84884000Y-73567500D02*
X84884000Y-76067500D01*
X84884000Y-76067500D02*
X90884000Y-76067500D01*
D12*
G04 #@! TO.C,R6*
X119285000Y-141200000D02*
X119285000Y-140870000D01*
X119285000Y-143610000D02*
X125825000Y-143610000D01*
X119285000Y-143280000D02*
X119285000Y-143610000D01*
X119285000Y-140870000D02*
X125825000Y-140870000D01*
X125825000Y-143610000D02*
X125825000Y-143280000D01*
X125825000Y-140870000D02*
X125825000Y-141200000D01*
D13*
G04 #@! TO.C,JP3*
X96475000Y-98452500D02*
X95975000Y-98452500D01*
X96465000Y-93302500D02*
X95965000Y-93302500D01*
X96475000Y-98452500D02*
X96475000Y-97952500D01*
X93795000Y-98447500D02*
X94295000Y-98447500D01*
X93815000Y-93307500D02*
X94315000Y-93307500D01*
X96465000Y-93302500D02*
X96465000Y-93802500D01*
G04 #@! TO.C,JP1*
X89020000Y-138385000D02*
X88520000Y-138385000D01*
X89030000Y-143535000D02*
X89030000Y-143035000D01*
X89020000Y-138385000D02*
X89020000Y-138885000D01*
X89030000Y-143535000D02*
X88530000Y-143535000D01*
X86230000Y-143535000D02*
X86730000Y-143535000D01*
X86250000Y-138395000D02*
X86750000Y-138395000D01*
D12*
G04 #@! TO.C,R7*
X125825000Y-136755000D02*
X125825000Y-136425000D01*
X125825000Y-136425000D02*
X119285000Y-136425000D01*
X125825000Y-138835000D02*
X125825000Y-139165000D01*
X125825000Y-139165000D02*
X119285000Y-139165000D01*
X119285000Y-139165000D02*
X119285000Y-138835000D01*
X119285000Y-136425000D02*
X119285000Y-136755000D01*
G04 #@! TO.C,R8*
X108490000Y-141200000D02*
X108490000Y-140870000D01*
X108490000Y-143280000D02*
X108490000Y-143610000D01*
X108490000Y-143610000D02*
X115030000Y-143610000D01*
X115030000Y-143610000D02*
X115030000Y-143280000D01*
X108490000Y-140870000D02*
X115030000Y-140870000D01*
X115030000Y-140870000D02*
X115030000Y-141200000D01*
G04 #@! TO.C,R13*
X88805000Y-114400000D02*
X95345000Y-114400000D01*
X88805000Y-114070000D02*
X88805000Y-114400000D01*
X95345000Y-111660000D02*
X95345000Y-111990000D01*
X88805000Y-111660000D02*
X95345000Y-111660000D01*
X95345000Y-114400000D02*
X95345000Y-114070000D01*
X88805000Y-111990000D02*
X88805000Y-111660000D01*
G04 #@! TO.C,R11*
X98965000Y-102135000D02*
X98965000Y-102465000D01*
X105505000Y-102465000D02*
X105505000Y-102135000D01*
X105505000Y-104545000D02*
X105505000Y-104875000D01*
X98965000Y-104875000D02*
X98965000Y-104545000D01*
X105505000Y-104875000D02*
X98965000Y-104875000D01*
X105505000Y-102135000D02*
X98965000Y-102135000D01*
D13*
G04 #@! TO.C,JP11*
X83573500Y-138405000D02*
X84073500Y-138405000D01*
X83583500Y-143555000D02*
X83583500Y-143055000D01*
X86227799Y-138396421D02*
X85727799Y-138396421D01*
X83573500Y-138405000D02*
X83573500Y-138905000D01*
X83583500Y-143555000D02*
X84083500Y-143555000D01*
X86222470Y-143543579D02*
X85722470Y-143543579D01*
G04 #@! TO.C,JP12*
X104644000Y-93345000D02*
X104644000Y-93845000D01*
X102239000Y-93345000D02*
X102739000Y-93345000D01*
X104644000Y-93345000D02*
X104144000Y-93345000D01*
X104644000Y-98425000D02*
X104144000Y-98425000D01*
X104644000Y-98425000D02*
X104644000Y-97925000D01*
X102239000Y-98425000D02*
X102739000Y-98425000D01*
D12*
G04 #@! TO.C,C6*
X108140000Y-96035000D02*
X115380000Y-96035000D01*
X115380000Y-96035000D02*
X115380000Y-98275000D01*
X108140000Y-98275000D02*
X115380000Y-98275000D01*
X108140000Y-96035000D02*
X108140000Y-98275000D01*
G04 #@! TO.C,TP2*
X108815000Y-88265000D02*
G75*
G03*
X108815000Y-88265000I-1500000J0D01*
G01*
G04 #@! TO.C,C3*
X123925000Y-104210000D02*
X123610000Y-104210000D01*
X121185000Y-104210000D02*
X121185000Y-109150000D01*
X123925000Y-104210000D02*
X123925000Y-109150000D01*
X123925000Y-109150000D02*
X123610000Y-109150000D01*
X121500000Y-109150000D02*
X121185000Y-109150000D01*
X121500000Y-104210000D02*
X121185000Y-104210000D01*
D14*
G04 #@! TO.C,RV1*
X99985000Y-188355000D02*
X99985000Y-198355000D01*
X95885000Y-185855000D02*
X95485000Y-185355000D01*
X100885000Y-185855000D02*
X95885000Y-185855000D01*
X100685000Y-185855000D02*
X100685000Y-188355000D01*
X101285000Y-178355000D02*
X101285000Y-185355000D01*
X100885000Y-178355000D02*
X100885000Y-185855000D01*
D13*
X93085000Y-173355000D02*
X93085000Y-173355000D01*
D14*
X95485000Y-178355000D02*
X95485000Y-178355000D01*
X99985000Y-197855000D02*
X96085000Y-197855000D01*
X96885000Y-198355000D02*
X96085000Y-197855000D01*
X95485000Y-185355000D02*
X95485000Y-178355000D01*
X101285000Y-185355000D02*
X101285000Y-185355000D01*
X100685000Y-188355000D02*
X99985000Y-188355000D01*
X99985000Y-198355000D02*
X96885000Y-198355000D01*
X103135000Y-178355000D02*
X93635000Y-178355000D01*
X95885000Y-185855000D02*
X95885000Y-178355000D01*
X100885000Y-185855000D02*
X100885000Y-185855000D01*
X101285000Y-185355000D02*
X100885000Y-185855000D01*
X101285000Y-185355000D02*
X95385000Y-185355000D01*
X100885000Y-185855000D02*
X95885000Y-185855000D01*
X96085000Y-197855000D02*
X96085000Y-185855000D01*
X103135000Y-168805000D02*
X103135000Y-178355000D01*
X93635000Y-178355000D02*
X93635000Y-168805000D01*
D13*
X93185000Y-173355000D02*
X93185000Y-173355000D01*
D14*
X93635000Y-168805000D02*
X103135000Y-168805000D01*
D13*
X93085000Y-173355000D02*
G75*
G03*
X93185000Y-173355000I50000J0D01*
G01*
X93185000Y-173355000D02*
G75*
G03*
X93085000Y-173355000I-50000J0D01*
G01*
D12*
G04 #@! TO.C,C9*
X98960000Y-113595000D02*
X98960000Y-108655000D01*
X101385000Y-108655000D02*
X101700000Y-108655000D01*
X98960000Y-108655000D02*
X99275000Y-108655000D01*
X98960000Y-113595000D02*
X99275000Y-113595000D01*
X101385000Y-113595000D02*
X101700000Y-113595000D01*
X101700000Y-113595000D02*
X101700000Y-108655000D01*
G04 #@! TO.C,IC2*
X99034799Y-115433323D02*
X99036472Y-123315853D01*
D14*
X98993178Y-115467060D02*
X92745217Y-115469769D01*
D12*
X92710000Y-124593150D02*
X92710000Y-115493150D01*
D14*
X97791979Y-124563668D02*
X92748378Y-124562638D01*
D12*
X99031080Y-123326601D02*
X97818618Y-124600014D01*
G04 #@! TO.C,R2*
X112625000Y-104045000D02*
X112295000Y-104045000D01*
X114705000Y-104045000D02*
X115035000Y-104045000D01*
X112295000Y-104045000D02*
X112295000Y-110585000D01*
X115035000Y-110585000D02*
X114705000Y-110585000D01*
X112295000Y-110585000D02*
X112625000Y-110585000D01*
X115035000Y-104045000D02*
X115035000Y-110585000D01*
G04 #@! TO.C,C4*
X108685000Y-118815000D02*
X108685000Y-123755000D01*
X108685000Y-118815000D02*
X108370000Y-118815000D01*
X106260000Y-123755000D02*
X105945000Y-123755000D01*
X108685000Y-123755000D02*
X108370000Y-123755000D01*
X106260000Y-118815000D02*
X105945000Y-118815000D01*
X105945000Y-118815000D02*
X105945000Y-123755000D01*
G04 #@! TO.C,C5*
X121355000Y-131980000D02*
X126295000Y-131980000D01*
X121355000Y-134405000D02*
X121355000Y-134720000D01*
X121355000Y-131980000D02*
X121355000Y-132295000D01*
X126295000Y-131980000D02*
X126295000Y-132295000D01*
X126295000Y-134405000D02*
X126295000Y-134720000D01*
X121355000Y-134720000D02*
X126295000Y-134720000D01*
D13*
G04 #@! TO.C,JP14*
X85855000Y-93320000D02*
X85355000Y-93320000D01*
X85835000Y-98460000D02*
X85335000Y-98460000D01*
X83175000Y-93315000D02*
X83175000Y-93815000D01*
X83175000Y-93315000D02*
X83675000Y-93315000D01*
X83185000Y-98465000D02*
X83185000Y-97965000D01*
X83185000Y-98465000D02*
X83685000Y-98465000D01*
D12*
G04 #@! TO.C,R5*
X121185000Y-122015000D02*
X121515000Y-122015000D01*
X121185000Y-115475000D02*
X121185000Y-122015000D01*
X123925000Y-122015000D02*
X123595000Y-122015000D01*
X121515000Y-115475000D02*
X121185000Y-115475000D01*
X123925000Y-115475000D02*
X123925000Y-122015000D01*
X123595000Y-115475000D02*
X123925000Y-115475000D01*
G04 #@! TO.C,C2*
X117055000Y-109150000D02*
X116740000Y-109150000D01*
X119480000Y-109150000D02*
X119165000Y-109150000D01*
X116740000Y-104210000D02*
X116740000Y-109150000D01*
X119480000Y-104210000D02*
X119480000Y-109150000D01*
X119480000Y-104210000D02*
X119165000Y-104210000D01*
X117055000Y-104210000D02*
X116740000Y-104210000D01*
D14*
G04 #@! TO.C,IC1*
X119189486Y-120534857D02*
X119190000Y-125815396D01*
D12*
X117951152Y-119252558D02*
X119189486Y-120534857D01*
X109410000Y-119255000D02*
X117951152Y-119252558D01*
D14*
X109410000Y-119295367D02*
X109410000Y-125812501D01*
D12*
X119190000Y-125855000D02*
X109410000Y-125855000D01*
D13*
G04 #@! TO.C,JP4*
X88457000Y-93300000D02*
X87957000Y-93300000D01*
X88467000Y-98450000D02*
X88467000Y-97950000D01*
X88467000Y-98450000D02*
X87967000Y-98450000D01*
X88457000Y-93300000D02*
X88457000Y-93800000D01*
X85777000Y-98455000D02*
X86277000Y-98455000D01*
X85797000Y-93315000D02*
X86297000Y-93315000D01*
G04 #@! TO.C,JP13*
X93781000Y-98460000D02*
X93281000Y-98460000D01*
X91111000Y-93320000D02*
X91611000Y-93320000D01*
X91121000Y-98470000D02*
X91621000Y-98470000D01*
X91121000Y-98470000D02*
X91121000Y-97970000D01*
X91111000Y-93320000D02*
X91111000Y-93820000D01*
X93801000Y-93320000D02*
X93301000Y-93320000D01*
D14*
G04 #@! TO.C,RV1*
X100885000Y-153470000D02*
X95885000Y-153470000D01*
X95485000Y-152970000D02*
X95485000Y-145970000D01*
D13*
X93185000Y-140970000D02*
X93185000Y-140970000D01*
D14*
X101285000Y-152970000D02*
X101285000Y-152970000D01*
X100685000Y-155970000D02*
X99985000Y-155970000D01*
X101285000Y-152970000D02*
X100885000Y-153470000D01*
X99985000Y-155970000D02*
X99985000Y-165970000D01*
X101285000Y-145970000D02*
X101285000Y-152970000D01*
X96885000Y-165970000D02*
X96085000Y-165470000D01*
X100885000Y-145970000D02*
X100885000Y-153470000D01*
X103135000Y-136420000D02*
X103135000Y-145970000D01*
X95485000Y-145970000D02*
X95485000Y-145970000D01*
D13*
X93085000Y-140970000D02*
X93085000Y-140970000D01*
D14*
X100685000Y-153470000D02*
X100685000Y-155970000D01*
X93635000Y-145970000D02*
X93635000Y-136420000D01*
X99985000Y-165470000D02*
X96085000Y-165470000D01*
X103143985Y-145812220D02*
X93643985Y-145812220D01*
X93635000Y-136420000D02*
X103135000Y-136420000D01*
X95885000Y-153470000D02*
X95485000Y-152970000D01*
X99985000Y-165970000D02*
X96885000Y-165970000D01*
X96085000Y-165470000D02*
X96085000Y-153470000D01*
X100885000Y-153470000D02*
X95885000Y-153470000D01*
X101285000Y-152970000D02*
X95385000Y-152970000D01*
X100885000Y-153470000D02*
X100885000Y-153470000D01*
X95885000Y-153470000D02*
X95885000Y-145970000D01*
D13*
X93085000Y-140970000D02*
G75*
G03*
X93185000Y-140970000I50000J0D01*
G01*
X93185000Y-140970000D02*
G75*
G03*
X93085000Y-140970000I-50000J0D01*
G01*
D12*
G04 #@! TO.C,R4*
X123925000Y-94520000D02*
X123925000Y-101060000D01*
X123925000Y-101060000D02*
X123595000Y-101060000D01*
X121185000Y-94520000D02*
X121185000Y-101060000D01*
X121515000Y-94520000D02*
X121185000Y-94520000D01*
X123595000Y-94520000D02*
X123925000Y-94520000D01*
X121185000Y-101060000D02*
X121515000Y-101060000D01*
G04 #@! TD*
M02*
