M48
; DRILL file {KiCad (6.0.11)} date Mon Feb 27 20:20:00 2023
; FORMAT={-:-/ absolute / metric / decimal}
; #@! TF.CreationDate,2023-02-27T20:20:00+09:00
; #@! TF.GenerationSoftware,Kicad,Pcbnew,(6.0.11)
; #@! TF.FileFunction,Plated,1,2,PTH
FMAT,2
METRIC
; #@! TA.AperFunction,Plated,PTH,ViaDrill
T1C0.400
; #@! TA.AperFunction,Plated,PTH,ViaDrill
T2C0.500
; #@! TA.AperFunction,Plated,PTH,ComponentDrill
T3C0.700
; #@! TA.AperFunction,Plated,PTH,ComponentDrill
T4C0.760
; #@! TA.AperFunction,Plated,PTH,ComponentDrill
T5C0.800
; #@! TA.AperFunction,Plated,PTH,ComponentDrill
T6C1.000
; #@! TA.AperFunction,Plated,PTH,ComponentDrill
T7C1.020
; #@! TA.AperFunction,Plated,PTH,ComponentDrill
T8C1.300
%
G90
G05
T1
X80.772Y-83.312
X101.6Y-103.378
X102.362Y-143.002
X111.76Y-131.572
X120.396Y-97.536
X120.396Y-112.014
T2
X130.302Y-144.272
T3
X80.645Y-149.225
X80.645Y-151.765
X80.645Y-154.305
X80.645Y-156.845
X80.645Y-159.385
X80.645Y-161.925
X80.645Y-164.465
X80.645Y-167.005
X80.645Y-169.545
X83.185Y-149.225
X83.185Y-151.765
X83.185Y-154.305
X83.185Y-156.845
X83.185Y-159.385
X83.185Y-161.925
X83.185Y-164.465
X83.185Y-167.005
X83.185Y-169.545
X85.725Y-149.225
X85.725Y-151.765
X85.725Y-154.305
X85.725Y-156.845
X85.725Y-159.385
X85.725Y-161.925
X85.725Y-164.465
X85.725Y-167.005
X85.725Y-169.545
X85.725Y-172.085
X85.725Y-174.625
X88.265Y-149.225
X88.265Y-151.765
X88.265Y-154.305
X88.265Y-156.845
X88.265Y-159.385
X88.265Y-161.925
X88.265Y-164.465
X88.265Y-167.005
X88.265Y-169.545
X88.265Y-172.085
X88.265Y-174.625
X90.805Y-149.225
X90.805Y-151.765
X90.805Y-154.305
X90.805Y-156.845
X90.805Y-159.385
X90.805Y-161.925
X90.805Y-164.465
X90.805Y-167.005
X90.805Y-169.545
X90.805Y-172.085
X90.805Y-174.625
X93.345Y-149.225
X93.345Y-151.765
X93.345Y-154.305
X93.345Y-156.845
X93.345Y-159.385
X93.345Y-161.925
X102.87Y-149.225
X102.87Y-151.765
X102.87Y-154.305
X102.87Y-156.845
X102.87Y-159.385
X102.87Y-161.925
X105.41Y-149.225
X105.41Y-151.765
X105.41Y-154.305
X105.41Y-156.845
X105.41Y-159.385
X105.41Y-161.925
X105.41Y-164.465
X105.41Y-167.005
X105.41Y-169.545
X105.41Y-172.085
X105.41Y-174.625
X107.95Y-149.225
X107.95Y-151.765
X107.95Y-154.305
X107.95Y-156.845
X107.95Y-159.385
X107.95Y-161.925
X107.95Y-164.465
X107.95Y-167.005
X107.95Y-169.545
X107.95Y-172.085
X107.95Y-174.625
X110.49Y-149.225
X110.49Y-151.765
X110.49Y-154.305
X110.49Y-156.845
X110.49Y-159.385
X110.49Y-161.925
X110.49Y-164.465
X110.49Y-167.005
X110.49Y-169.545
X110.49Y-172.085
X110.49Y-174.625
X113.03Y-149.225
X113.03Y-151.765
X113.03Y-154.305
X113.03Y-156.845
X113.03Y-159.385
X113.03Y-161.925
X113.03Y-164.465
X113.03Y-167.005
X113.03Y-169.545
X113.03Y-172.085
X113.03Y-174.625
X115.57Y-149.225
X115.57Y-151.765
X115.57Y-154.305
X115.57Y-156.845
X115.57Y-159.385
X115.57Y-161.925
X115.57Y-164.465
X115.57Y-167.005
X115.57Y-169.545
X115.57Y-172.085
X115.57Y-174.625
X118.11Y-149.225
X118.11Y-151.765
X118.11Y-154.305
X118.11Y-156.845
X118.11Y-159.385
X118.11Y-161.925
X118.11Y-164.465
X118.11Y-167.005
X118.11Y-169.545
X118.11Y-172.085
X118.11Y-174.625
X120.65Y-149.225
X120.65Y-151.765
X120.65Y-154.305
X120.65Y-156.845
X120.65Y-159.385
X120.65Y-161.925
X120.65Y-164.465
X120.65Y-167.005
X120.65Y-169.545
X120.65Y-172.085
X120.65Y-174.625
X123.19Y-149.225
X123.19Y-151.765
X123.19Y-154.305
X123.19Y-156.845
X123.19Y-159.385
X123.19Y-161.925
X123.19Y-164.465
X123.19Y-167.005
X123.19Y-169.545
X123.19Y-172.085
X123.19Y-174.625
X125.73Y-149.225
X125.73Y-151.765
X125.73Y-154.305
X125.73Y-156.845
X125.73Y-159.385
X125.73Y-161.925
X125.73Y-164.465
X125.73Y-167.005
X125.73Y-169.545
X128.27Y-149.225
X128.27Y-151.765
X128.27Y-154.305
X128.27Y-156.845
X128.27Y-159.385
X128.27Y-161.925
X128.27Y-164.465
X128.27Y-167.005
X128.27Y-169.545
T4
X92.075Y-116.205
X92.075Y-118.745
X92.075Y-121.285
X92.075Y-123.825
X99.695Y-116.205
X99.695Y-118.745
X99.695Y-121.285
X99.695Y-123.825
X110.49Y-118.585
X110.49Y-126.525
X113.03Y-118.585
X113.03Y-126.525
X115.57Y-118.585
X115.57Y-126.525
X118.11Y-118.585
X118.11Y-126.525
T5
X83.82Y-103.505
X83.82Y-111.125
X87.122Y-125.476
X87.122Y-127.976
X88.265Y-109.22
X88.265Y-113.03
X90.21Y-103.505
X92.115Y-127.0
X95.21Y-103.505
X95.885Y-109.22
X95.885Y-113.03
X97.115Y-127.0
X98.425Y-103.505
X100.33Y-108.625
X100.33Y-113.625
X102.275Y-129.54
X106.045Y-103.505
X106.68Y-106.68
X106.68Y-114.3
X107.228Y-94.488
X107.228Y-98.044
X107.275Y-129.54
X107.315Y-118.785
X107.315Y-123.785
X107.95Y-137.795
X107.95Y-142.24
X111.038Y-94.488
X111.038Y-98.044
X113.665Y-103.505
X113.665Y-111.125
X115.57Y-137.795
X115.57Y-142.24
X118.11Y-93.98
X118.11Y-101.6
X118.11Y-104.18
X118.11Y-109.18
X118.745Y-137.795
X118.745Y-142.24
X121.325Y-132.461
X122.555Y-93.98
X122.555Y-101.6
X122.555Y-104.18
X122.555Y-109.18
X122.555Y-114.935
X122.555Y-122.555
X126.325Y-132.461
X126.365Y-137.795
X126.365Y-142.24
T6
X80.395Y-88.625
X80.395Y-91.165
X80.395Y-93.705
X80.395Y-96.245
X80.395Y-98.785
X80.395Y-101.325
X80.395Y-103.865
X80.395Y-106.405
X80.395Y-111.485
X80.395Y-114.025
X80.395Y-116.565
X80.395Y-119.105
X80.395Y-121.645
X80.395Y-124.185
X95.25Y-88.265
X95.885Y-138.47
X95.885Y-140.97
X95.885Y-170.855
X95.885Y-173.355
X98.385Y-138.47
X98.385Y-140.97
X98.385Y-170.855
X98.385Y-173.355
X100.885Y-138.47
X100.885Y-140.97
X100.885Y-170.855
X100.885Y-173.355
X101.6Y-89.916
X107.442Y-89.916
X113.665Y-88.265
X128.655Y-79.485
X128.655Y-82.025
X128.655Y-84.565
X128.655Y-87.105
X128.655Y-89.645
X128.655Y-92.185
X128.655Y-94.725
X128.655Y-97.265
X128.655Y-99.805
X128.655Y-102.345
X128.655Y-106.405
X128.655Y-108.945
X128.655Y-111.485
X128.655Y-114.025
X128.655Y-116.565
X128.655Y-119.105
X128.655Y-121.645
X128.655Y-124.185
T7
X84.455Y-94.615
X84.455Y-97.155
X85.993Y-139.7
X85.993Y-142.24
X87.067Y-94.615
X87.067Y-97.155
X88.9Y-139.7
X88.9Y-142.24
X92.511Y-94.62
X92.511Y-97.16
X95.195Y-94.612
X95.195Y-97.152
X100.585Y-94.615
X100.585Y-97.155
X103.374Y-94.615
X103.374Y-97.155
T8
X84.626Y-81.567
X85.176Y-87.067
X89.576Y-87.067
X90.126Y-81.567
X119.424Y-81.567
X119.974Y-87.067
X124.374Y-87.067
X124.924Y-81.567
T0
M30
